<?xml version="1.0" encoding="UTF-8" standalone="no"?>
<!-- Generator: Adobe Illustrator 16.0.1, SVG Export Plug-In . SVG Version: 6.00 Build 0)  -->

<svg
   xmlns:dc="http://purl.org/dc/elements/1.1/"
   xmlns:cc="http://creativecommons.org/ns#"
   xmlns:rdf="http://www.w3.org/1999/02/22-rdf-syntax-ns#"
   xmlns:svg="http://www.w3.org/2000/svg"
   xmlns="http://www.w3.org/2000/svg"
   xmlns:sodipodi="http://sodipodi.sourceforge.net/DTD/sodipodi-0.dtd"
   xmlns:inkscape="http://www.inkscape.org/namespaces/inkscape"
   version="1.1"
   id="Layer_1"
   x="0px"
   y="0px"
   width="492.909"
   height="492.90799"
   viewBox="0 0 492.909 492.90799"
   enable-background="new 0 0 612 792"
   xml:space="preserve"
   inkscape:version="0.91 r13725"
   sodipodi:docname="coreos-sphere.svg"><metadata
     id="metadata4359"><rdf:RDF><cc:Work
         rdf:about=""><dc:format>image/svg+xml</dc:format><dc:type
           rdf:resource="http://purl.org/dc/dcmitype/StillImage" /><dc:title></dc:title></cc:Work></rdf:RDF></metadata><defs
     id="defs4357" /><sodipodi:namedview
     pagecolor="#ffffff"
     bordercolor="#666666"
     borderopacity="1"
     objecttolerance="10"
     gridtolerance="10"
     guidetolerance="10"
     inkscape:pageopacity="0"
     inkscape:pageshadow="2"
     inkscape:window-width="1411"
     inkscape:window-height="745"
     id="namedview4355"
     showgrid="false"
     inkscape:zoom="0.15628303"
     inkscape:cx="166.78816"
     inkscape:cy="-102.55402"
     inkscape:window-x="0"
     inkscape:window-y="0"
     inkscape:window-maximized="0"
     inkscape:current-layer="g4341"
     fit-margin-top="0"
     fit-margin-left="0"
     fit-margin-right="0"
     fit-margin-bottom="0" /><g
     id="g4333"
     transform="translate(-60.719,-73.565)"><path
       d="m 307.188,73.565 c -135.917,0 -246.469,110.559 -246.469,246.455 0,135.895 110.553,246.453 246.469,246.453 135.876,0 246.44,-110.559 246.44,-246.453 C 553.629,184.124 443.064,73.565 307.188,73.565 Z"
       id="path4335"
       inkscape:connector-curvature="0"
       style="fill:#53a3da" /><path
       d="m 307.188,96.184 c -39.632,0 -73.248,63.391 -85.388,151.506 -0.39,2.835 -0.762,5.696 -1.098,8.59 -1.656,13.867 -2.779,28.287 -3.341,43.129 -0.269,6.792 -0.401,13.659 -0.401,20.611 0,6.945 0.132,13.819 0.401,20.604 0.562,14.842 1.685,29.263 3.341,43.135 18.587,2.4 38.455,4.039 59.179,4.813 8.959,0.334 18.051,0.535 27.306,0.535 9.226,0 18.343,-0.201 27.277,-0.535 20.75,-0.775 40.606,-2.414 59.204,-4.813 2.046,-0.267 4.066,-0.554 6.098,-0.842 C 477.17,372.041 531.014,347.979 531.014,320.021 531.016,196.392 430.789,96.184 307.188,96.184 Z"
       id="path4337"
       inkscape:connector-curvature="0"
       style="fill:#f1606d" /><path
       d="m 399.768,257.116 c -2.246,-3.276 -4.653,-6.412 -7.221,-9.426 -20.538,-24.208 -51.131,-39.592 -85.358,-39.592 -11.1,0 -20.979,16.988 -27.306,43.363 -2.513,10.516 -4.464,22.517 -5.722,35.541 -0.988,10.436 -1.524,21.534 -1.524,33.02 0,11.486 0.536,22.583 1.524,33.013 10.444,0.989 21.527,1.524 33.028,1.524 11.483,0 22.569,-0.536 33.013,-1.524 22.957,-2.18 42.773,-6.593 56.812,-12.41 13.865,-5.742 22.074,-12.876 22.074,-20.604 0,-23.32 -7.126,-44.974 -19.32,-62.905 z"
       id="path4339"
       inkscape:connector-curvature="0"
       style="fill:#ffffff" /></g><g
     id="g4341"
     transform="translate(-60.719,-73.565)" /></svg>