<?xml version="1.0" encoding="UTF-8" standalone="no"?>
<!-- Generator: Adobe Illustrator 16.0.1, SVG Export Plug-In . SVG Version: 6.00 Build 0)  -->

<svg
   xmlns:dc="http://purl.org/dc/elements/1.1/"
   xmlns:cc="http://creativecommons.org/ns#"
   xmlns:rdf="http://www.w3.org/1999/02/22-rdf-syntax-ns#"
   xmlns:svg="http://www.w3.org/2000/svg"
   xmlns="http://www.w3.org/2000/svg"
   xmlns:sodipodi="http://sodipodi.sourceforge.net/DTD/sodipodi-0.dtd"
   xmlns:inkscape="http://www.inkscape.org/namespaces/inkscape"
   version="1.1"
   id="Layer_1"
   x="0px"
   y="0px"
   width="612px"
   height="792px"
   viewBox="0 0 612 792"
   enable-background="new 0 0 612 792"
   xml:space="preserve"
   inkscape:version="0.91 r13725"
   sodipodi:docname="coreos-wordmark-vert-color-transparent.svg"><metadata
     id="metadata4359"><rdf:RDF><cc:Work
         rdf:about=""><dc:format>image/svg+xml</dc:format><dc:type
           rdf:resource="http://purl.org/dc/dcmitype/StillImage" /><dc:title></dc:title></cc:Work></rdf:RDF></metadata><defs
     id="defs4357" /><sodipodi:namedview
     pagecolor="#ffffff"
     bordercolor="#666666"
     borderopacity="1"
     objecttolerance="10"
     gridtolerance="10"
     guidetolerance="10"
     inkscape:pageopacity="0"
     inkscape:pageshadow="2"
     inkscape:window-width="1153"
     inkscape:window-height="743"
     id="namedview4355"
     showgrid="false"
     inkscape:zoom="0.73"
     inkscape:cx="52.695573"
     inkscape:cy="397.90663"
     inkscape:window-x="0"
     inkscape:window-y="0"
     inkscape:window-maximized="0"
     inkscape:current-layer="g4341" /><g
     id="g4333"
     style="opacity:0.2"><path
       fill="#53A3DA"
       d="M307.188,73.565c-135.917,0-246.469,110.559-246.469,246.455c0,135.895,110.553,246.453,246.469,246.453   c135.876,0,246.44-110.559,246.44-246.453C553.629,184.124,443.064,73.565,307.188,73.565z"
       id="path4335"
       style="" /><path
       fill="#F1606D"
       d="M307.188,96.184c-39.632,0-73.248,63.391-85.388,151.506c-0.39,2.835-0.762,5.696-1.098,8.59   c-1.656,13.867-2.779,28.287-3.341,43.129c-0.269,6.792-0.401,13.659-0.401,20.611c0,6.945,0.132,13.819,0.401,20.604   c0.562,14.842,1.685,29.263,3.341,43.135c18.587,2.4,38.455,4.039,59.179,4.813c8.959,0.334,18.051,0.535,27.306,0.535   c9.226,0,18.343-0.201,27.277-0.535c20.75-0.775,40.606-2.414,59.204-4.813c2.046-0.267,4.066-0.554,6.098-0.842   c77.404-10.876,131.248-34.938,131.248-62.896C531.016,196.392,430.789,96.184,307.188,96.184z"
       id="path4337"
       style="" /><path
       fill="#FFFFFF"
       d="M399.768,257.116c-2.246-3.276-4.653-6.412-7.221-9.426c-20.538-24.208-51.131-39.592-85.358-39.592   c-11.1,0-20.979,16.988-27.306,43.363c-2.513,10.516-4.464,22.517-5.722,35.541c-0.988,10.436-1.524,21.534-1.524,33.02   s0.536,22.583,1.524,33.013c10.444,0.989,21.527,1.524,33.028,1.524c11.483,0,22.569-0.536,33.013-1.524   c22.957-2.18,42.773-6.593,56.812-12.41c13.865-5.742,22.074-12.876,22.074-20.604   C419.088,296.701,411.962,275.047,399.768,257.116z"
       id="path4339"
       style="" /></g><g
     id="g4341"><path
       fill="#231F20"
       d="M115.059,609.141c13.04,0,23.635,6.357,30.317,13.529l-10.43,11.736   c-5.544-5.379-11.576-8.803-19.725-8.803c-17.443,0-29.993,14.67-29.993,38.633c0,24.289,11.573,38.959,29.34,38.959   c9.456,0,16.464-3.914,22.495-10.596l10.433,11.572c-8.639,9.942-19.725,15.486-33.254,15.486   c-27.06,0-48.412-19.561-48.412-54.932C65.831,629.842,87.672,609.141,115.059,609.141z"
       id="path4343"
       style="fill:#ffffff;fill-opacity:1;opacity:0.2" /><path
       fill="#231F20"
       d="M189.721,635.71c20.048,0,38.145,15.323,38.145,42.056c0,26.569-18.097,41.893-38.145,41.893   c-19.888,0-37.979-15.323-37.979-41.893C151.742,651.033,169.833,635.71,189.721,635.71z M189.721,704.335   c11.736,0,18.908-10.596,18.908-26.569c0-16.137-7.171-26.732-18.908-26.732c-11.736,0-18.747,10.596-18.747,26.732   C170.974,693.739,177.985,704.335,189.721,704.335z"
       id="path4345"
       style="fill:#ffffff;fill-opacity:1;opacity:0.2" /><path
       fill="#231F20"
       d="M234.067,637.667h15.484l1.307,14.18h0.65c5.705-10.433,14.18-16.137,22.655-16.137   c4.078,0,6.685,0.489,9.129,1.63l-3.261,16.301c-2.768-0.814-4.888-1.304-8.309-1.304c-6.361,0-14.022,4.4-18.911,16.464v48.901   h-18.745V637.667z"
       id="path4347"
       style="fill:#ffffff;fill-opacity:1;opacity:0.2" /><path
       fill="#231F20"
       d="M318.343,635.71c21.682,0,33.091,15.649,33.091,37.981c0,3.584-0.327,6.845-0.816,8.802h-50.856   c1.627,14.507,10.756,22.656,23.633,22.656c6.848,0,12.716-2.118,18.584-5.868l6.354,11.736   c-7.658,5.054-17.277,8.641-27.383,8.641c-22.169,0-39.446-15.486-39.446-41.893C281.504,651.684,299.595,635.71,318.343,635.71z    M335.13,670.594c0-12.716-5.378-20.377-16.297-20.377c-9.456,0-17.604,7.011-19.238,20.377H335.13z"
       id="path4349"
       style="fill:#ffffff;fill-opacity:1;opacity:0.2" /><path
       fill="#F1606D"
       d="M379.963,663.583c0-33.905,18.421-55.26,44.337-55.26c25.756,0,44.174,21.354,44.174,55.26   c0,34.067-18.418,56.075-44.174,56.075C398.384,719.658,379.963,697.65,379.963,663.583z M460.651,663.583   c0-29.667-14.67-48.411-36.352-48.411c-21.842,0-36.512,18.744-36.512,48.411c0,29.83,14.67,49.228,36.512,49.228   C445.981,712.811,460.651,693.413,460.651,663.583z"
       id="path4351"
       style="opacity:0.2" /><path
       fill="#53A4D9"
       d="M482.662,698.304c7.828,8.803,19.074,14.507,31.627,14.507c16.297,0,26.732-8.802,26.732-21.515   c0-13.366-8.802-17.768-19.397-22.495l-16.304-7.335c-9.289-4.077-21.679-10.76-21.679-26.733   c0-15.486,13.367-26.409,31.134-26.409c13.043,0,23.473,5.868,29.994,12.88l-4.401,5.051c-6.194-6.682-14.833-11.082-25.593-11.082   c-14.183,0-23.635,7.498-23.635,19.234c0,12.389,10.759,17.114,18.581,20.701l16.303,7.172   c11.897,5.381,22.493,12.062,22.493,28.526s-13.53,28.853-34.395,28.853c-15.647,0-27.71-6.684-36.186-16.137L482.662,698.304z"
       id="path4353"
       style="opacity:0.2" /></g></svg>