<?xml version="1.0" encoding="UTF-8" standalone="no"?>
<!-- Created with Inkscape (http://www.inkscape.org/) -->

<svg
   xmlns:dc="http://purl.org/dc/elements/1.1/"
   xmlns:cc="http://creativecommons.org/ns#"
   xmlns:rdf="http://www.w3.org/1999/02/22-rdf-syntax-ns#"
   xmlns:svg="http://www.w3.org/2000/svg"
   xmlns="http://www.w3.org/2000/svg"
   xmlns:sodipodi="http://sodipodi.sourceforge.net/DTD/sodipodi-0.dtd"
   xmlns:inkscape="http://www.inkscape.org/namespaces/inkscape"
   id="svg4244"
   version="1.1"
   inkscape:version="0.91 r13725"
   xml:space="preserve"
   width="1110.1893"
   height="342.85144"
   viewBox="0 0 1110.1893 342.85144"
   sodipodi:docname="docker_rkt.svg"><metadata
     id="metadata4250"><rdf:RDF><cc:Work
         rdf:about=""><dc:format>image/svg+xml</dc:format><dc:type
           rdf:resource="http://purl.org/dc/dcmitype/StillImage" /><dc:title></dc:title></cc:Work></rdf:RDF></metadata><defs
     id="defs4248"><clipPath
       clipPathUnits="userSpaceOnUse"
       id="clipPath4260"><path
         d="M 0,0 650,0 650,580 0,580 0,0 Z"
         id="path4262"
         inkscape:connector-curvature="0" /></clipPath></defs><sodipodi:namedview
     pagecolor="#ffffff"
     bordercolor="#666666"
     borderopacity="1"
     objecttolerance="10"
     gridtolerance="10"
     guidetolerance="10"
     inkscape:pageopacity="0"
     inkscape:pageshadow="2"
     inkscape:window-width="1442"
     inkscape:window-height="800"
     id="namedview4246"
     showgrid="false"
     inkscape:zoom="0.5"
     inkscape:cx="680.52923"
     inkscape:cy="153.92931"
     inkscape:window-x="0"
     inkscape:window-y="0"
     inkscape:window-maximized="0"
     inkscape:current-layer="g4252"
     fit-margin-top="0"
     fit-margin-left="0"
     fit-margin-right="0"
     fit-margin-bottom="0" /><g
     id="g4252"
     inkscape:groupmode="layer"
     inkscape:label="vector_v-dark-trans"
     transform="matrix(1.25,0,0,-1.25,78.844691,533.92572)"><g
       id="g4254"
       style="opacity:1" /><g
       id="g4256"
       transform="translate(17.758787,59.384099)"
       style="opacity:1"><g
         id="g4258"
         clip-path="url(#clipPath4260)"
         transform="translate(-168.83454,-126.1816)"
         style=""><path
           d="m 363.387,406.609 42.695,0 0,-43.645 21.588,0 c 9.969,0 20.223,1.776 29.664,4.975 4.639,1.573 9.846,3.762 14.422,6.515 -6.027,7.869 -9.104,17.805 -10.01,27.599 -1.23,13.321 1.457,30.66 10.473,41.086 l 4.488,5.191 5.348,-4.299 c 13.465,-10.818 24.789,-25.934 26.785,-43.166 16.213,4.769 35.248,3.641 49.539,-4.607 l 5.863,-3.383 -3.086,-6.023 C 549.07,363.264 523.803,355.957 499.1,357.25 462.135,265.183 381.658,221.595 284.08,221.595 c -50.412,0 -96.664,18.845 -123.002,63.571 l -0.432,0.73 -3.837,7.807 c -8.903,19.688 -11.86,41.256 -9.854,62.806 l 0.602,6.455 36.509,0 0,43.645 42.694,0 0,42.696 85.392,0 0,42.695 51.235,0 0,-85.391"
           style="fill:#354750;fill-opacity:1;fill-rule:evenodd;stroke:none"
           id="path4266"
           inkscape:connector-curvature="0" /><path
           d="m 501.713,390.463 c 2.863,22.248 -13.787,39.724 -24.113,48.021 -11.899,-13.757 -13.748,-49.812 4.92,-64.992 -10.418,-9.254 -32.372,-17.642 -54.85,-17.642 l -273.627,0 c -2.186,-23.465 1.934,-45.073 11.342,-63.569 l 3.113,-5.693 c 1.971,-3.345 4.124,-6.573 6.451,-9.681 10e-4,0 10e-4,0 10e-4,0 11.249,-0.722 21.621,-0.972 31.11,-0.761 0.001,0 0.003,0 0.004,0 18.648,0.412 33.863,2.613 45.395,6.608 1.717,0.597 3.588,-0.314 4.182,-2.028 0.593,-1.715 -0.315,-3.588 -2.03,-4.182 -1.533,-0.531 -3.132,-1.029 -4.783,-1.5 -0.002,-0.002 -0.004,-0.002 -0.006,-0.002 -9.08,-2.592 -18.816,-4.338 -31.379,-5.113 0.745,-0.012 -0.777,-0.112 -0.781,-0.112 -0.427,-0.027 -0.965,-0.088 -1.394,-0.111 -4.944,-0.277 -10.281,-0.336 -15.737,-0.336 -5.967,0 -11.844,0.113 -18.414,0.447 l -0.168,-0.111 c 22.799,-25.625 58.447,-40.994 103.131,-40.994 94.57,0 174.785,41.922 210.305,136.038 25.201,-2.586 49.42,3.84 60.437,25.346 -17.549,10.127 -40.115,6.898 -53.109,0.367"
           style="fill:#47addf;fill-opacity:1;fill-rule:nonzero;stroke:none"
           id="path4268"
           inkscape:connector-curvature="0" /><path
           d="m 501.713,390.463 c 2.863,22.248 -13.787,39.724 -24.113,48.021 -11.899,-13.757 -13.748,-49.812 4.92,-64.992 -10.418,-9.254 -32.372,-17.642 -54.85,-17.642 l -257.424,0 c -1.117,-35.936 12.219,-63.214 35.814,-79.704 0.001,0 0.003,0 0.004,0 18.648,0.412 33.863,2.613 45.395,6.608 1.717,0.597 3.588,-0.314 4.182,-2.028 0.593,-1.715 -0.315,-3.588 -2.03,-4.182 -1.533,-0.531 -3.132,-1.029 -4.783,-1.5 -0.002,-0.002 -0.004,-0.002 -0.006,-0.002 -9.08,-2.592 -19.653,-4.561 -32.216,-5.336 -0.003,0 -0.304,0.291 -0.308,0.289 32.184,-16.508 78.852,-16.449 132.356,4.104 59.994,23.046 115.819,66.956 154.772,117.178 -0.588,-0.265 -1.16,-0.537 -1.713,-0.814"
           style="fill:#56beee;fill-opacity:1;fill-rule:nonzero;stroke:none"
           id="path4270"
           inkscape:connector-curvature="0" /><path
           d="m 154.555,327.34 c 1.701,-12.569 5.377,-24.338 10.83,-35.059 l 3.113,-5.693 c 1.971,-3.345 4.124,-6.573 6.452,-9.681 11.251,-0.722 21.624,-0.972 31.114,-0.761 18.648,0.412 33.863,2.613 45.395,6.608 1.717,0.597 3.588,-0.314 4.182,-2.028 0.593,-1.715 -0.315,-3.588 -2.03,-4.182 -1.533,-0.531 -3.132,-1.029 -4.783,-1.5 -0.002,-0.002 -0.004,-0.002 -0.006,-0.002 -9.08,-2.592 -19.597,-4.449 -32.16,-5.225 -0.431,-0.027 -1.183,-0.031 -1.618,-0.056 -4.942,-0.278 -10.224,-0.446 -15.681,-0.446 -5.966,0 -12.067,0.114 -18.636,0.446 22.798,-25.625 58.669,-41.049 103.353,-41.049 80.961,0 151.399,30.73 192.281,98.628 l -321.806,0"
           style="fill:#388abd;fill-opacity:1;fill-rule:nonzero;stroke:none"
           id="path4272"
           inkscape:connector-curvature="0" /><path
           d="m 172.709,327.34 c 4.84,-22.069 16.471,-39.395 33.355,-51.194 18.648,0.412 33.863,2.613 45.395,6.608 1.717,0.597 3.588,-0.314 4.182,-2.028 0.593,-1.715 -0.315,-3.588 -2.03,-4.182 -1.533,-0.531 -3.132,-1.029 -4.783,-1.5 -0.002,-0.002 -0.004,-0.002 -0.006,-0.002 -9.08,-2.592 -19.82,-4.449 -32.383,-5.225 32.182,-16.507 78.715,-16.269 132.215,4.282 32.366,12.434 63.516,30.946 91.463,53.241 l -267.408,0"
           style="fill:#3f9ccb;fill-opacity:1;fill-rule:nonzero;stroke:none"
           id="path4274"
           inkscape:connector-curvature="0" /><path
           d="m 191.182,399.494 37.002,0 0,-37.004 -37.002,0 0,37.004 z m 3.082,-3.084 2.92,0 0,-30.838 -2.92,0 0,30.838 z m 5.49,0 3.037,0 0,-30.838 -3.037,0 0,30.838 z m 5.605,0 3.037,0 0,-30.838 -3.037,0 0,30.838 z m 5.608,0 3.037,0 0,-30.838 -3.037,0 0,30.838 z m 5.607,0 3.037,0 0,-30.838 -3.037,0 0,30.838 z m 5.606,0 2.922,0 0,-30.838 -2.922,0 0,30.838 z"
           style="fill:#46b0d7;fill-opacity:1;fill-rule:evenodd;stroke:none"
           id="path4276"
           inkscape:connector-curvature="0" /><path
           d="m 233.875,442.189 37.006,0 0,-37.002 -37.006,0 0,37.002 z m 3.086,-3.084 2.918,0 0,-30.835 -2.918,0 0,30.835 z m 5.49,0 3.035,0 0,-30.835 -3.035,0 0,30.835 z m 5.604,0 3.037,0 0,-30.835 -3.037,0 0,30.835 z m 5.607,0 3.037,0 0,-30.835 -3.037,0 0,30.835 z m 5.608,0 3.037,0 0,-30.835 -3.037,0 0,30.835 z m 5.605,0 2.924,0 0,-30.835 -2.924,0 0,30.835 z"
           style="fill:#46b0d7;fill-opacity:1;fill-rule:evenodd;stroke:none"
           id="path4278"
           inkscape:connector-curvature="0" /><path
           d="m 233.875,399.494 37.006,0 0,-37.004 -37.006,0 0,37.004 z m 3.086,-3.084 2.918,0 0,-30.838 -2.918,0 0,30.838 z m 5.49,0 3.035,0 0,-30.838 -3.035,0 0,30.838 z m 5.604,0 3.037,0 0,-30.838 -3.037,0 0,30.838 z m 5.607,0 3.037,0 0,-30.838 -3.037,0 0,30.838 z m 5.608,0 3.037,0 0,-30.838 -3.037,0 0,30.838 z m 5.605,0 2.924,0 0,-30.838 -2.924,0 0,30.838 z"
           style="fill:#58c8f1;fill-opacity:1;fill-rule:evenodd;stroke:none"
           id="path4280"
           inkscape:connector-curvature="0" /><path
           d="m 276.572,399.494 37.004,0 0,-37.004 -37.004,0 0,37.004 z m 3.084,-3.084 2.918,0 0,-30.838 -2.918,0 0,30.838 z m 5.489,0 3.037,0 0,-30.838 -3.037,0 0,30.838 z m 5.607,0 3.037,0 0,-30.838 -3.037,0 0,30.838 z m 5.607,0 3.037,0 0,-30.838 -3.037,0 0,30.838 z m 5.606,0 3.039,0 0,-30.838 -3.039,0 0,30.838 z m 5.607,0 2.92,0 0,-30.838 -2.92,0 0,30.838 z"
           style="fill:#46b0d7;fill-opacity:1;fill-rule:evenodd;stroke:none"
           id="path4282"
           inkscape:connector-curvature="0" /><path
           d="m 276.572,442.189 37.004,0 0,-37.002 -37.004,0 0,37.002 z m 3.084,-3.084 2.918,0 0,-30.835 -2.918,0 0,30.835 z m 5.489,0 3.037,0 0,-30.835 -3.037,0 0,30.835 z m 5.607,0 3.037,0 0,-30.835 -3.037,0 0,30.835 z m 5.607,0 3.037,0 0,-30.835 -3.037,0 0,30.835 z m 5.606,0 3.039,0 0,-30.835 -3.039,0 0,30.835 z m 5.607,0 2.92,0 0,-30.835 -2.92,0 0,30.835 z"
           style="fill:#58c8f1;fill-opacity:1;fill-rule:evenodd;stroke:none"
           id="path4284"
           inkscape:connector-curvature="0" /><path
           d="m 319.268,399.494 37.003,0 0,-37.004 -37.003,0 0,37.004 z m 3.084,-3.084 2.919,0 0,-30.838 -2.919,0 0,30.838 z m 5.49,0 3.037,0 0,-30.838 -3.037,0 0,30.838 z m 5.605,0 3.037,0 0,-30.838 -3.037,0 0,30.838 z m 5.608,0 3.037,0 0,-30.838 -3.037,0 0,30.838 z m 5.607,0 3.037,0 0,-30.838 -3.037,0 0,30.838 z m 5.606,0 2.921,0 0,-30.838 -2.921,0 0,30.838 z"
           style="fill:#58c8f1;fill-opacity:1;fill-rule:evenodd;stroke:none"
           id="path4286"
           inkscape:connector-curvature="0" /><path
           d="m 319.268,442.189 37.003,0 0,-37.002 -37.003,0 0,37.002 z m 3.084,-3.084 2.919,0 0,-30.835 -2.919,0 0,30.835 z m 5.49,0 3.037,0 0,-30.835 -3.037,0 0,30.835 z m 5.605,0 3.037,0 0,-30.835 -3.037,0 0,30.835 z m 5.608,0 3.037,0 0,-30.835 -3.037,0 0,30.835 z m 5.607,0 3.037,0 0,-30.835 -3.037,0 0,30.835 z m 5.606,0 2.921,0 0,-30.835 -2.921,0 0,30.835 z"
           style="fill:#46b0d7;fill-opacity:1;fill-rule:evenodd;stroke:none"
           id="path4288"
           inkscape:connector-curvature="0" /><path
           d="m 319.268,484.885 37.003,0 0,-37.004 -37.003,0 0,37.004 z m 3.084,-3.082 2.919,0 0,-30.838 -2.919,0 0,30.838 z m 5.49,0 3.037,0 0,-30.838 -3.037,0 0,30.838 z m 5.605,0 3.037,0 0,-30.838 -3.037,0 0,30.838 z m 5.608,0 3.037,0 0,-30.838 -3.037,0 0,30.838 z m 5.607,0 3.037,0 0,-30.838 -3.037,0 0,30.838 z m 5.606,0 2.921,0 0,-30.838 -2.921,0 0,30.838 z"
           style="fill:#58c8f1;fill-opacity:1;fill-rule:evenodd;stroke:none"
           id="path4290"
           inkscape:connector-curvature="0" /><path
           d="m 361.963,399.494 37.004,0 0,-37.004 -37.004,0 0,37.004 z m 3.082,-3.084 2.922,0 0,-30.838 -2.922,0 0,30.838 z m 5.49,0 3.037,0 0,-30.838 -3.037,0 0,30.838 z m 5.608,0 3.037,0 0,-30.838 -3.037,0 0,30.838 z m 5.605,0 3.037,0 0,-30.838 -3.037,0 0,30.838 z m 5.609,0 3.036,0 0,-30.838 -3.036,0 0,30.838 z m 5.606,0 2.92,0 0,-30.838 -2.92,0 0,30.838 z"
           style="fill:#46b0d7;fill-opacity:1;fill-rule:evenodd;stroke:none"
           id="path4292"
           inkscape:connector-curvature="0" /><path
           d="m 268.564,302.496 c 5.637,0 10.207,-4.572 10.207,-10.209 0,-5.637 -4.57,-10.207 -10.207,-10.207 -5.638,0 -10.209,4.57 -10.209,10.207 0,5.637 4.571,10.209 10.209,10.209"
           style="fill:#d7f2f2;fill-opacity:1;fill-rule:evenodd;stroke:none"
           id="path4294"
           inkscape:connector-curvature="0" /><path
           d="m 268.564,299.6 c 0.934,0 1.825,-0.176 2.647,-0.495 -0.891,-0.515 -1.494,-1.48 -1.494,-2.584 0,-1.648 1.336,-2.982 2.984,-2.982 1.129,0 2.11,0.627 2.617,1.553 0.358,-0.863 0.557,-1.811 0.557,-2.805 0,-4.037 -3.273,-7.31 -7.311,-7.31 -4.037,0 -7.312,3.273 -7.312,7.31 0,4.039 3.275,7.313 7.312,7.313"
           style="fill:#354750;fill-opacity:1;fill-rule:evenodd;stroke:none"
           id="path4296"
           inkscape:connector-curvature="0" /><path
           d="m 88,323.65 474.877,0 c -10.34,2.623 -32.715,6.166 -29.025,19.717 -18.801,-21.756 -64.143,-15.263 -75.586,-4.535 -12.743,-18.482 -86.926,-11.457 -92.1,2.941 -15.975,-18.748 -65.477,-18.748 -81.453,0 -5.176,-14.398 -79.358,-21.423 -92.102,-2.941 -11.443,-10.728 -56.781,-17.221 -75.584,4.535 C 120.717,329.816 98.342,326.273 88,323.65"
           style="fill:#354750;fill-opacity:1;fill-rule:evenodd;stroke:none"
           id="path4298"
           inkscape:connector-curvature="0" /><path
           d="m 295.701,228.933 c -25.281,11.996 -39.158,28.304 -46.879,46.109 -9.39,-2.682 -20.679,-4.395 -33.795,-5.131 -4.941,-0.277 -10.138,-0.418 -15.593,-0.418 -6.288,0 -12.914,0.186 -19.87,0.555 23.184,-23.17 51.706,-41.01 104.516,-41.336 3.899,0 7.77,0.076 11.621,0.221"
           style="fill:#c2e1e0;fill-opacity:1;fill-rule:nonzero;stroke:none"
           id="path4300"
           inkscape:connector-curvature="0" /><path
           d="m 258.213,258.614 c -3.498,4.748 -6.891,10.715 -9.385,16.43 -9.392,-2.682 -20.683,-4.397 -33.801,-5.133 9.01,-4.89 21.897,-9.422 43.186,-11.297"
           style="fill:#d7f2f2;fill-opacity:1;fill-rule:nonzero;stroke:none"
           id="path4302"
           inkscape:connector-curvature="0" /></g></g><g
       id="g4754"
       transform="matrix(2.8652642,0,0,-2.8652642,568.27491,410.37699)"
       style="opacity:1"><path
         id="path4756"
         d="m 55.126,83.058 c 0,0 1.943,-9.385 10.066,-20.65 C 70.838,59.146 76.5,55.149 81.296,50.354 85.73,28.366 78.999,4.775 78.999,4.775 c 0,0 -23.591,-6.73 -45.578,-2.296 -4.797,4.798 -8.792,10.46 -12.054,16.104 -11.268,8.121 -20.651,10.064 -20.651,10.064 0,0 7.505,5.153 11.126,11 -1.542,4.448 -2.267,7.314 -2.267,7.314 0.587,2.745 2.324,5.947 4.721,9.178 -1.655,1.312 -3.595,2.677 -5.703,3.818 -0.252,0.139 -0.51,0.272 -0.767,0.402 1.809,5.967 9.799,13.482 15.619,15.507 0.118,-0.233 0.241,-0.463 0.366,-0.692 1.174,-2.165 2.583,-4.154 3.927,-5.839 3.261,2.366 6.448,4.129 9.074,4.861 0,0 2.869,-0.724 7.316,-2.266 5.845,3.622 10.998,11.128 10.998,11.128 z M 38.542,63.184 c -3.347,-1.45 -7.792,-5.02 -10.822,-8.052 -4.097,-4.097 -6.317,-7.587 -7.169,-9.759 1.439,-4.905 6.967,-21.849 17.584,-33.24 12.804,-2.174 26.217,0.163 32.055,1.45 1.286,5.836 3.626,19.252 1.45,32.055 C 60.319,56.199 43.62,61.691 38.542,63.184 Z"
         inkscape:connector-curvature="0"
         style="fill:#54a3da" /><circle
         id="circle4758"
         r="8.7690001"
         cy="34.006001"
         cx="49.769001"
         style="fill:#f1616e" /></g><path
       style="fill:#ff32bf;fill-rule:evenodd;stroke:#b7c4cc;stroke-width:10.4384;stroke-linecap:round;stroke-linejoin:miter;stroke-miterlimit:4;stroke-dasharray:none;stroke-opacity:0.2;opacity:1;fill-opacity:0.2"
       d="M 546.57504,415.72587 417.38299,170.70665"
       id="path4769"
       inkscape:connector-curvature="0" /></g></svg>