<?xml version="1.0" encoding="UTF-8" standalone="no"?>
<!-- Created with Inkscape (http://www.inkscape.org/) -->

<svg
   xmlns:dc="http://purl.org/dc/elements/1.1/"
   xmlns:cc="http://creativecommons.org/ns#"
   xmlns:rdf="http://www.w3.org/1999/02/22-rdf-syntax-ns#"
   xmlns:svg="http://www.w3.org/2000/svg"
   xmlns="http://www.w3.org/2000/svg"
   xmlns:sodipodi="http://sodipodi.sourceforge.net/DTD/sodipodi-0.dtd"
   xmlns:inkscape="http://www.inkscape.org/namespaces/inkscape"
   width="210mm"
   height="297mm"
   viewBox="0 0 744.09448819 1052.3622047"
   id="svg2"
   version="1.1"
   inkscape:version="0.91 r13725"
   sodipodi:docname="drawing.svg">
  <sodipodi:namedview
     id="base"
     pagecolor="#ffffff"
     bordercolor="#666666"
     borderopacity="1.0"
     inkscape:pageopacity="0.0"
     inkscape:pageshadow="2"
     inkscape:zoom="0.21971356"
     inkscape:cx="-817.85714"
     inkscape:cy="520"
     inkscape:document-units="px"
     inkscape:current-layer="g6866"
     showgrid="false"
     inkscape:window-width="968"
     inkscape:window-height="758"
     inkscape:window-x="0"
     inkscape:window-y="0"
     inkscape:window-maximized="0" />
  <defs
     id="defs4">
    <inkscape:perspective
       sodipodi:type="inkscape:persp3d"
       inkscape:vp_x="359.31371 : 0 : 0"
       inkscape:vp_y="6.1232339e-14 : 999.99999 : 0"
       inkscape:vp_z="-417.6858 : -417.6858 : 0"
       inkscape:persp3d-origin="524.20701 : 591.99719 : 1"
       id="perspective7538" />
  </defs>
  <metadata
     id="metadata7">
    <rdf:RDF>
      <cc:Work
         rdf:about="">
        <dc:format>image/svg+xml</dc:format>
        <dc:type
           rdf:resource="http://purl.org/dc/dcmitype/StillImage" />
        <dc:title></dc:title>
      </cc:Work>
    </rdf:RDF>
  </metadata>
  <g
     id="layer1"
     inkscape:groupmode="layer"
     inkscape:label="Layer 1">
    <g
       transform="translate(-207.1735,-241.39265)"
       id="g4410">
      <g
         id="g6866"
         transform="translate(-88.571429,200)">
        <g
           id="g6838"
           transform="matrix(0.48990771,0,0,0.48990771,-360.45602,-99.617927)">
          <path
             id="path6840"
             d="m 307.188,73.565 c -135.917,0 -246.469,110.559 -246.469,246.455 0,135.895 110.553,246.453 246.469,246.453 135.876,0 246.44,-110.559 246.44,-246.453 C 553.629,184.124 443.064,73.565 307.188,73.565 Z"
             inkscape:connector-curvature="0"
             style="fill:#53a3da" />
          <path
             id="path6842"
             d="m 307.188,96.184 c -39.632,0 -73.248,63.391 -85.388,151.506 -0.39,2.835 -0.762,5.696 -1.098,8.59 -1.656,13.867 -2.779,28.287 -3.341,43.129 -0.269,6.792 -0.401,13.659 -0.401,20.611 0,6.945 0.132,13.819 0.401,20.604 0.562,14.842 1.685,29.263 3.341,43.135 18.587,2.4 38.455,4.039 59.179,4.813 8.959,0.334 18.051,0.535 27.306,0.535 9.226,0 18.343,-0.201 27.277,-0.535 20.75,-0.775 40.606,-2.414 59.204,-4.813 2.046,-0.267 4.066,-0.554 6.098,-0.842 C 477.17,372.041 531.014,347.979 531.014,320.021 531.016,196.392 430.789,96.184 307.188,96.184 Z"
             inkscape:connector-curvature="0"
             style="fill:#f1606d" />
          <path
             id="path6844"
             d="m 399.768,257.116 c -2.246,-3.276 -4.653,-6.412 -7.221,-9.426 -20.538,-24.208 -51.131,-39.592 -85.358,-39.592 -11.1,0 -20.979,16.988 -27.306,43.363 -2.513,10.516 -4.464,22.517 -5.722,35.541 -0.988,10.436 -1.524,21.534 -1.524,33.02 0,11.486 0.536,22.583 1.524,33.013 10.444,0.989 21.527,1.524 33.028,1.524 11.483,0 22.569,-0.536 33.013,-1.524 22.957,-2.18 42.773,-6.593 56.812,-12.41 13.865,-5.742 22.074,-12.876 22.074,-20.604 0,-23.32 -7.126,-44.974 -19.32,-62.905 z"
             inkscape:connector-curvature="0"
             style="fill:#ffffff" />
        </g>
        <circle
           style="opacity:1;fill:none;fill-opacity:0.2;stroke:#8f8f8f;stroke-width:13.04800034;stroke-linecap:round;stroke-miterlimit:4;stroke-dasharray:none;stroke-opacity:1"
           id="path6883"
           cx="-814.68182"
           cy="390.13574"
           r="242.85715" />
        <g
           id="g7047"
           transform="translate(-155.96985,-490.81558)">
          <g
             id="g7049">
            <path
               id="path7051"
               d="m 296.544,384.038 c 0,8.063 -6.533,14.585 -14.585,14.585 -8.058,0 -14.573,-6.521 -14.573,-14.585 0,-8.029 6.516,-14.576 14.573,-14.576 8.052,0 14.585,6.547 14.585,14.576 z"
               inkscape:connector-curvature="0"
               style="fill:#419eda" />
            <path
               id="path7053"
               d="m 315.39,384.038 c 0,8.063 6.534,14.585 14.586,14.585 8.05,0 14.577,-6.521 14.577,-14.585 0,-8.032 -6.527,-14.579 -14.577,-14.579 -8.052,0 -14.586,6.547 -14.586,14.579 z"
               inkscape:connector-curvature="0"
               style="fill:#419eda" />
            <path
               id="path7055"
               d="m 414.636,399.847 c -1.05,0.088 -2.105,0.129 -3.226,0.129 -6.503,0 -12.812,-1.525 -18.504,-4.318 1.895,-10.871 2.701,-21.823 2.49,-32.735 -6.171,-8.926 -13.224,-17.348 -21.185,-25.107 3.454,-6.476 8.56,-12.048 14.934,-15.999 l 2.737,-1.692 -2.133,-2.405 c -10.988,-12.373 -24.102,-21.939 -38.97,-28.43 l -2.965,-1.29 -0.753,3.134 c -1.773,7.304 -5.479,13.893 -10.567,19.181 -9.779,-5.198 -19.995,-9.399 -30.53,-12.581 -10.51,3.175 -20.708,7.364 -30.483,12.554 -5.067,-5.281 -8.764,-11.854 -10.53,-19.137 l -0.758,-3.133 -2.954,1.284 c -14.681,6.397 -28.156,16.222 -38.964,28.411 l -2.139,2.41 2.734,1.692 c 6.354,3.936 11.446,9.475 14.894,15.916 -7.937,7.729 -14.982,16.124 -21.148,25.009 -0.24,10.907 0.525,21.939 2.429,32.96 -5.664,2.767 -11.938,4.275 -18.398,4.275 -1.134,0 -2.195,-0.041 -3.226,-0.127 l -3.212,-0.245 0.301,3.207 c 1.574,16.225 6.612,31.657 14.982,45.872 l 1.634,2.774 2.453,-2.082 c 5.685,-4.822 12.554,-8.015 19.858,-9.302 4.815,9.845 10.522,19.095 16.996,27.683 10.33,3.613 21.093,6.31 32.208,7.915 1.066,7.351 0.217,14.954 -2.683,21.984 l -1.223,2.979 3.145,0.692 c 8.053,1.771 16.177,2.673 24.132,2.673 l 24.125,-2.673 3.148,-0.692 -1.226,-2.985 c -2.892,-7.03 -3.741,-14.642 -2.675,-21.994 11.071,-1.606 21.794,-4.297 32.086,-7.899 6.48,-8.595 12.192,-17.851 17.015,-27.709 7.327,1.279 14.235,4.474 19.955,9.31 l 2.453,2.079 1.626,-2.767 c 8.385,-14.233 13.422,-29.664 14.972,-45.863 l 0.301,-3.201 -3.156,0.243 z m -74.146,39.211 c -11.413,3.104 -23.004,4.671 -34.526,4.671 -11.553,0 -23.13,-1.566 -34.553,-4.671 -6.267,-9.738 -11.222,-20.17 -14.788,-31.153 -3.551,-10.932 -5.629,-22.385 -6.232,-34.178 7.377,-9.121 15.766,-17.111 25.035,-23.837 9.419,-6.851 19.666,-12.417 30.538,-16.604 10.854,4.188 21.082,9.746 30.479,16.568 9.305,6.762 17.731,14.814 25.144,23.992 -0.632,11.726 -2.735,23.113 -6.292,34.027 -3.557,10.981 -8.528,21.446 -14.805,31.185 z"
               inkscape:connector-curvature="0"
               style="fill:#419eda" />
          </g>
        </g>
        <g
           id="g7791"
           transform="translate(796.49158,-304.94249)">
          <g
             id="g7806">
            <rect
               style="opacity:1;fill:#ffffff;fill-opacity:1;fill-rule:nonzero;stroke:#8f8f8f;stroke-width:5.52310181;stroke-linecap:round;stroke-linejoin:round;stroke-miterlimit:4;stroke-dasharray:none;stroke-opacity:1"
               id="rect7520"
               width="536.62012"
               height="296.61972"
               x="-394.87756"
               y="547.56134"
               rx="28.543602"
               ry="34.896439" />
            <g
               id="g7478"
               transform="matrix(0.58793829,0,0,0.58793829,-359.39108,673.79997)"
               style="stroke-width:3;stroke-miterlimit:4;stroke-dasharray:none">
              <g
                 id="g7480"
                 style="stroke-width:3;stroke-miterlimit:4;stroke-dasharray:none">
                <path
                   id="path7482"
                   d="M 136.168,45.527 C 76.898,45.527 28.689,93.739 28.689,153 c 0,59.265 48.209,107.474 107.479,107.474 59.252,0 107.465,-48.209 107.465,-107.474 0,-59.261 -48.213,-107.473 -107.465,-107.473 z"
                   inkscape:connector-curvature="0"
                   style="fill:#53a3da;stroke-width:3;stroke-miterlimit:4;stroke-dasharray:none" />
                <path
                   id="path7484"
                   d="m 136.168,55.389 c -17.283,0 -31.941,27.645 -37.235,66.069 -0.169,1.236 -0.333,2.487 -0.478,3.746 -0.723,6.047 -1.213,12.335 -1.458,18.808 -0.117,2.962 -0.175,5.956 -0.175,8.988 0,3.029 0.058,6.029 0.175,8.985 0.245,6.472 0.735,12.764 1.458,18.811 8.104,1.049 16.769,1.761 25.807,2.099 3.907,0.146 7.872,0.233 11.907,0.233 4.023,0 8,-0.088 11.895,-0.233 9.049,-0.338 17.708,-1.05 25.819,-2.099 0.892,-0.114 1.77,-0.239 2.659,-0.368 33.754,-4.74 57.235,-15.232 57.235,-27.428 -10e-4,-53.912 -43.706,-97.611 -97.609,-97.611 z"
                   inkscape:connector-curvature="0"
                   style="fill:#f1606d;stroke-width:3;stroke-miterlimit:4;stroke-dasharray:none" />
                <path
                   id="path7486"
                   d="m 176.541,125.569 c -0.979,-1.428 -2.029,-2.796 -3.148,-4.11 -8.956,-10.557 -22.297,-17.265 -37.224,-17.265 -4.839,0 -9.148,7.407 -11.907,18.909 -1.096,4.586 -1.947,9.819 -2.495,15.498 -0.432,4.551 -0.665,9.391 -0.665,14.399 0,5.008 0.233,9.849 0.665,14.396 4.554,0.432 9.387,0.664 14.402,0.664 5.009,0 9.842,-0.232 14.396,-0.664 10.011,-0.95 18.653,-2.875 24.775,-5.411 6.046,-2.501 9.624,-5.615 9.624,-8.985 -0.001,-10.168 -3.106,-19.612 -8.423,-27.431 z"
                   inkscape:connector-curvature="0"
                   style="fill:#ffffff;stroke-width:3;stroke-miterlimit:4;stroke-dasharray:none" />
              </g>
              <g
                 id="g7488"
                 style="stroke-width:3;stroke-miterlimit:4;stroke-dasharray:none">
                <path
                   id="path7490"
                   d="m 344.891,100.053 c 12.585,0 22.816,6.138 29.262,13.062 l -10.064,11.326 c -5.353,-5.192 -11.175,-8.495 -19.041,-8.495 -16.839,0 -28.953,14.16 -28.953,37.291 0,23.448 11.169,37.608 28.32,37.608 9.128,0 15.895,-3.775 21.717,-10.228 l 10.067,11.169 c -8.335,9.598 -19.038,14.95 -32.099,14.95 -26.119,0 -46.731,-18.88 -46.731,-53.025 10e-4,-33.675 21.085,-53.658 47.522,-53.658 z"
                   inkscape:connector-curvature="0"
                   style="fill:#231f20;stroke-width:3;stroke-miterlimit:4;stroke-dasharray:none" />
                <path
                   id="path7492"
                   d="m 416.961,125.701 c 19.352,0 36.822,14.793 36.822,40.597 0,25.647 -17.471,40.439 -36.822,40.439 -19.197,0 -36.66,-14.792 -36.66,-40.439 0,-25.804 17.463,-40.597 36.66,-40.597 z m 0,66.244 c 11.33,0 18.25,-10.228 18.25,-25.647 0,-15.577 -6.92,-25.804 -18.25,-25.804 -11.33,0 -18.094,10.227 -18.094,25.804 0,15.419 6.764,25.647 18.094,25.647 z"
                   inkscape:connector-curvature="0"
                   style="fill:#231f20;stroke-width:3;stroke-miterlimit:4;stroke-dasharray:none" />
                <path
                   id="path7494"
                   d="m 459.771,127.589 14.943,0 1.26,13.688 0.629,0 c 5.506,-10.07 13.691,-15.577 21.871,-15.577 3.938,0 6.455,0.472 8.811,1.574 l -3.148,15.734 c -2.67,-0.784 -4.717,-1.257 -8.018,-1.257 -6.139,0 -13.539,4.245 -18.256,15.893 l 0,47.203 -18.092,0 0,-77.258 z"
                   inkscape:connector-curvature="0"
                   style="fill:#231f20;stroke-width:3;stroke-miterlimit:4;stroke-dasharray:none" />
                <path
                   id="path7496"
                   d="m 541.121,125.701 c 20.928,0 31.941,15.107 31.941,36.667 0,3.458 -0.314,6.604 -0.787,8.495 l -49.09,0 c 1.57,14.003 10.379,21.869 22.811,21.869 6.613,0 12.273,-2.041 17.941,-5.662 l 6.135,11.326 c -7.395,4.878 -16.676,8.341 -26.432,8.341 -21.404,0 -38.08,-14.95 -38.08,-40.439 10e-4,-25.178 17.463,-40.597 35.561,-40.597 z m 16.205,33.675 c 0,-12.277 -5.189,-19.671 -15.732,-19.671 -9.125,0 -16.996,6.768 -18.57,19.671 l 34.302,0 z"
                   inkscape:connector-curvature="0"
                   style="fill:#231f20;stroke-width:3;stroke-miterlimit:4;stroke-dasharray:none" />
                <path
                   id="path7498"
                   d="m 600.602,152.607 c 0,-32.729 17.785,-53.344 42.799,-53.344 24.863,0 42.641,20.615 42.641,53.344 0,32.889 -17.777,54.13 -42.641,54.13 -25.014,0 -42.799,-21.241 -42.799,-54.13 z m 77.888,0 c 0,-28.639 -14.158,-46.731 -35.09,-46.731 -21.084,0 -35.248,18.093 -35.248,46.731 0,28.796 14.164,47.521 35.248,47.521 20.932,0 35.09,-18.725 35.09,-47.521 z"
                   inkscape:connector-curvature="0"
                   style="fill:#f1606d;stroke-width:3;stroke-miterlimit:4;stroke-dasharray:none" />
                <path
                   id="path7500"
                   d="m 699.738,186.125 c 7.557,8.495 18.412,14.003 30.529,14.003 15.732,0 25.807,-8.499 25.807,-20.767 0,-12.904 -8.494,-17.154 -18.723,-21.717 l -15.736,-7.082 c -8.969,-3.936 -20.934,-10.385 -20.934,-25.808 0,-14.947 12.904,-25.492 30.059,-25.492 12.588,0 22.658,5.665 28.949,12.435 l -4.244,4.878 c -5.982,-6.452 -14.32,-10.7 -24.705,-10.7 -13.691,0 -22.816,7.239 -22.816,18.565 0,11.962 10.385,16.521 17.936,19.985 l 15.738,6.921 c 11.486,5.195 21.713,11.647 21.713,27.539 0,15.892 -13.061,27.851 -33.201,27.851 -15.107,0 -26.75,-6.451 -34.932,-15.576 l 4.56,-5.035 z"
                   inkscape:connector-curvature="0"
                   style="fill:#53a4d9;stroke-width:3;stroke-miterlimit:4;stroke-dasharray:none" />
              </g>
            </g>
          </g>
        </g>
        <g
           id="g7780"
           transform="translate(774.95922,-309.7812)">
          <g
             inkscape:corner7="-0.51072051 : 0.14203249 : 0.083384809 : 1"
             inkscape:corner0="-0.17939738 : 0.24675356 : 0 : 1"
             inkscape:perspectiveID="#perspective7538"
             style="opacity:1;fill:none;fill-opacity:0.2;stroke:#8f8f8f;stroke-width:5;stroke-linecap:round;stroke-linejoin:round;stroke-miterlimit:4;stroke-dasharray:none;stroke-opacity:1"
             id="g7722"
             sodipodi:type="inkscape:box3d">
            <path
               points="-138.51617,564.7853 -138.51617,669.50637 -19.467223,669.50637 -19.467223,564.7853 "
               d="m -19.467223,564.7853 -119.048947,0 0,104.72107 119.048947,0 z"
               inkscape:box3dsidetype="3"
               style="fill:#8686bf;fill-rule:evenodd;stroke:none;stroke-width:1px;stroke-linecap:butt;stroke-linejoin:round;stroke-opacity:1"
               id="path7728"
               sodipodi:type="inkscape:box3dside" />
            <path
               points="-138.51617,669.50637 -173.34482,704.33502 -173.34482,599.61395 -138.51617,564.7853 "
               d="m -138.51617,564.7853 0,104.72107 -34.82865,34.82865 0,-104.72107 z"
               inkscape:box3dsidetype="14"
               style="fill:#d7d7ff;fill-rule:evenodd;stroke:none;stroke-width:1px;stroke-linecap:butt;stroke-linejoin:round;stroke-opacity:1"
               id="path7730"
               sodipodi:type="inkscape:box3dside" />
            <path
               points="-138.51617,669.50637 -173.34482,704.33502 -54.295873,704.33502 -19.467223,669.50637 "
               d="m -19.467223,669.50637 -119.048947,0 -34.82865,34.82865 119.048947,0 z"
               inkscape:box3dsidetype="13"
               style="fill:#afafde;fill-rule:evenodd;stroke:none;stroke-width:1px;stroke-linecap:butt;stroke-linejoin:round;stroke-opacity:1"
               id="path7732"
               sodipodi:type="inkscape:box3dside" />
            <path
               points="-138.51617,564.7853 -173.34482,599.61395 -54.295873,599.61395 -19.467223,564.7853 "
               d="m -19.467223,564.7853 -119.048947,0 -34.82865,34.82865 119.048947,0 z"
               inkscape:box3dsidetype="5"
               style="fill:#4d4d9f;fill-rule:evenodd;stroke:none;stroke-width:1px;stroke-linecap:butt;stroke-linejoin:round;stroke-opacity:1"
               id="path7726"
               sodipodi:type="inkscape:box3dside" />
            <path
               points="-19.467223,669.50637 -54.295873,704.33502 -54.295873,599.61395 -19.467223,564.7853 "
               d="m -19.467223,564.7853 0,104.72107 -34.82865,34.82865 0,-104.72107 z"
               inkscape:box3dsidetype="6"
               style="fill:#353564;fill-rule:evenodd;stroke:none;stroke-width:1px;stroke-linecap:butt;stroke-linejoin:round;stroke-opacity:1"
               id="path7724"
               sodipodi:type="inkscape:box3dside" />
            <path
               points="-173.34482,599.61395 -173.34482,704.33502 -54.295873,704.33502 -54.295873,599.61395 "
               d="m -54.295873,599.61395 -119.048947,0 0,104.72107 119.048947,0 z"
               inkscape:box3dsidetype="11"
               style="fill:#e9e9ff;fill-rule:evenodd;stroke:none;stroke-width:1px;stroke-linecap:butt;stroke-linejoin:round;stroke-opacity:1"
               id="path7734"
               sodipodi:type="inkscape:box3dside" />
          </g>
          <text
             sodipodi:linespacing="125%"
             id="text7766"
             y="657.67761"
             x="-118.31737"
             style="font-style:normal;font-weight:normal;font-size:60px;line-height:125%;font-family:sans-serif;letter-spacing:0px;word-spacing:0px;fill:#000000;fill-opacity:1;stroke:none;stroke-width:1px;stroke-linecap:butt;stroke-linejoin:miter;stroke-opacity:1"
             xml:space="preserve"><tspan
               id="tspan7776"
               style="font-style:normal;font-variant:normal;font-weight:bold;font-stretch:normal;font-size:35px;font-family:sans-serif;-inkscape-font-specification:'sans-serif Bold';text-align:center;text-anchor:middle"
               y="657.67761"
               x="-118.31737"
               sodipodi:role="line">App</tspan></text>
        </g>
      </g>
    </g>
  </g>
</svg>
