<?xml version="1.0" encoding="UTF-8" standalone="no"?>
<svg
   xmlns:dc="http://purl.org/dc/elements/1.1/"
   xmlns:cc="http://creativecommons.org/ns#"
   xmlns:rdf="http://www.w3.org/1999/02/22-rdf-syntax-ns#"
   xmlns:svg="http://www.w3.org/2000/svg"
   xmlns="http://www.w3.org/2000/svg"
   xmlns:sodipodi="http://sodipodi.sourceforge.net/DTD/sodipodi-0.dtd"
   xmlns:inkscape="http://www.inkscape.org/namespaces/inkscape"
   version="1.1"
   viewBox="0 0 435.77954 385.00787"
   stroke-miterlimit="10"
   id="svg4201"
   inkscape:version="0.91 r13725"
   sodipodi:docname="Untitled drawing(2).svg"
   width="435.77954"
   height="385.00787"
   style="fill:none;stroke:none;stroke-linecap:square;stroke-miterlimit:10">
  <metadata
     id="metadata4248">
    <rdf:RDF>
      <cc:Work
         rdf:about="">
        <dc:format>image/svg+xml</dc:format>
        <dc:type
           rdf:resource="http://purl.org/dc/dcmitype/StillImage" />
        <dc:title></dc:title>
      </cc:Work>
    </rdf:RDF>
  </metadata>
  <defs
     id="defs4246" />
  <sodipodi:namedview
     pagecolor="#ffffff"
     bordercolor="#666666"
     borderopacity="1"
     objecttolerance="10"
     gridtolerance="10"
     guidetolerance="10"
     inkscape:pageopacity="0"
     inkscape:pageshadow="2"
     inkscape:window-width="1016"
     inkscape:window-height="616"
     id="namedview4244"
     showgrid="false"
     fit-margin-top="0"
     fit-margin-left="0"
     fit-margin-right="0"
     fit-margin-bottom="0"
     inkscape:zoom="0.32291667"
     inkscape:cx="217.88977"
     inkscape:cy="-58.163143"
     inkscape:window-x="0"
     inkscape:window-y="0"
     inkscape:window-maximized="0"
     inkscape:current-layer="svg4201" />
  <clipPath
     id="p.0">
    <path
       d="M 0,0 960,0 960,720 0,720 0,0 Z"
       id="path4204"
       inkscape:connector-curvature="0"
       style="clip-rule:nonzero" />
  </clipPath>
  <path
     style="fill:#ffffff;fill-rule:nonzero"
     inkscape:connector-curvature="0"
     id="path4210"
     d="m 0,0 435.77954,0 0,385.00787 -435.77954,0 z" />
  <path
     style="fill:#00ffff;fill-rule:nonzero"
     inkscape:connector-curvature="0"
     id="path4212"
     d="m 175.46719,108.22047 185.98428,0 0,168.56693 -185.98428,0 z" />
  <path
     style="fill-rule:nonzero;stroke:#000000;stroke-width:2;stroke-linecap:butt;stroke-linejoin:round"
     inkscape:connector-curvature="0"
     id="path4214"
     d="m 175.46719,108.22047 185.98428,0 0,168.56693 -185.98428,0 z" />
  <path
     style="fill:#000000;fill-rule:nonzero"
     inkscape:connector-curvature="0"
     id="path4216"
     d="m 251.69177,192.35706 q 0,3.60937 -0.9375,6.34375 -0.93753,2.71875 -2.71878,4.54687 -1.76563,1.8125 -4.35938,2.73438 -2.59375,0.92187 -5.875,0.92187 l -7.14062,0 0,-28.5625 7.95312,0 q 2.98438,0 5.40625,0.90625 2.42188,0.89063 4.10938,2.67188 1.70312,1.76562 2.62503,4.39062 0.9375,2.60938 0.9375,6.04688 z m -3.84378,0.10937 q 0,-2.84375 -0.65625,-4.92187 -0.64063,-2.09375 -1.875,-3.4375 -1.21875,-1.34375 -3.01563,-2 -1.79687,-0.65625 -4.07812,-0.65625 l -3.9375,0 0,22.32812 3.17187,0 q 5.15625,0 7.76563,-2.84375 2.625,-2.85937 2.625,-8.46875 z m 21.76956,14.4375 -0.71875,-2.96875 -0.15625,0 q -0.64062,0.875 -1.29687,1.51563 -0.64063,0.625 -1.40625,1.04687 -0.75,0.40625 -1.6875,0.59375 -0.9375,0.20313 -2.17188,0.20313 -1.34375,0 -2.48437,-0.39063 -1.125,-0.375 -1.95313,-1.15625 -0.82812,-0.79687 -1.29687,-2 -0.46875,-1.20312 -0.46875,-2.84375 0,-3.20312 2.25,-4.92187 2.25,-1.71875 6.85937,-1.875 l 3.59375,-0.14063 0,-1.34375 q 0,-1.3125 -0.28125,-2.1875 -0.28125,-0.875 -0.82812,-1.40625 -0.53125,-0.54687 -1.32813,-0.78125 -0.78125,-0.23437 -1.79687,-0.23437 -1.625,0 -3.01563,0.46875 -1.39062,0.46875 -2.6875,1.14062 l -1.25,-2.6875 q 1.45313,-0.78125 3.21875,-1.32812 1.78125,-0.54688 3.73438,-0.54688 2,0 3.45312,0.40625 1.45313,0.40625 2.39063,1.28125 0.95312,0.85938 1.42187,2.20313 0.46875,1.34375 0.46875,3.26562 l 0,14.6875 -2.5625,0 z m -6.51562,-2.48437 q 1.1875,0 2.20312,-0.35938 1.01563,-0.375 1.75,-1.125 0.75,-0.76562 1.17188,-1.90625 0.42187,-1.14062 0.42187,-2.6875 l 0,-1.92187 -2.79687,0.125 q -1.75,0.0781 -2.95313,0.39062 -1.1875,0.3125 -1.90625,0.875 -0.70312,0.5625 -1.01562,1.35938 -0.3125,0.78125 -0.3125,1.78125 0,1.79687 0.9375,2.64062 0.95312,0.82813 2.5,0.82813 z m 22.15234,-0.0312 q 0.34375,0 0.78125,-0.0312 0.4375,-0.0469 0.84375,-0.10938 0.42188,-0.0625 0.76563,-0.14062 0.34375,-0.0781 0.51562,-0.14063 l 0,2.70313 q -0.25,0.10937 -0.64062,0.23437 -0.39063,0.125 -0.85938,0.20313 -0.46875,0.0937 -0.98437,0.14062 -0.5,0.0469 -1,0.0469 -1.20313,0 -2.25,-0.3125 -1.03125,-0.3125 -1.78125,-1.07813 -0.75,-0.76562 -1.1875,-2.0625 -0.42188,-1.29687 -0.42188,-3.26562 l 0,-12.4375 -3.03125,0 0,-1.59375 3.03125,-1.51563 1.53125,-4.5 2.04688,0 0,4.92188 5.39062,0 0,2.6875 -5.39062,0 0,12.4375 q 0,1.89062 0.60937,2.85937 0.625,0.95313 2.03125,0.95313 z m 19.14844,2.51562 -0.71875,-2.96875 -0.15625,0 q -0.64063,0.875 -1.29688,1.51563 -0.64062,0.625 -1.40625,1.04687 -0.75,0.40625 -1.6875,0.59375 -0.9375,0.20313 -2.17187,0.20313 -1.34375,0 -2.48438,-0.39063 -1.125,-0.375 -1.95312,-1.15625 -0.82813,-0.79687 -1.29688,-2 -0.46875,-1.20312 -0.46875,-2.84375 0,-3.20312 2.25,-4.92187 2.25,-1.71875 6.85938,-1.875 l 3.59375,-0.14063 0,-1.34375 q 0,-1.3125 -0.28125,-2.1875 -0.28125,-0.875 -0.82813,-1.40625 -0.53125,-0.54687 -1.32812,-0.78125 -0.78125,-0.23437 -1.79688,-0.23437 -1.625,0 -3.01562,0.46875 -1.39063,0.46875 -2.6875,1.14062 l -1.25,-2.6875 q 1.45312,-0.78125 3.21875,-1.32812 1.78125,-0.54688 3.73437,-0.54688 2,0 3.45313,0.40625 1.45312,0.40625 2.39062,1.28125 0.95313,0.85938 1.42188,2.20313 0.46875,1.34375 0.46875,3.26562 l 0,14.6875 -2.5625,0 z m -6.51563,-2.48437 q 1.1875,0 2.20313,-0.35938 1.01562,-0.375 1.75,-1.125 0.75,-0.76562 1.17187,-1.90625 0.42188,-1.14062 0.42188,-2.6875 l 0,-1.92187 -2.79688,0.125 q -1.75,0.0781 -2.95312,0.39062 -1.1875,0.3125 -1.90625,0.875 -0.70313,0.5625 -1.01563,1.35938 -0.3125,0.78125 -0.3125,1.78125 0,1.79687 0.9375,2.64062 0.95313,0.82813 2.5,0.82813 z" />
  <path
     style="fill:#00ffff;fill-rule:nonzero"
     inkscape:connector-curvature="0"
     id="path4218"
     d="m 74.3176,108.22047 93.22833,0 0,79.40157 -93.22833,0 z" />
  <path
     style="fill-rule:nonzero;stroke:#000000;stroke-width:2;stroke-linecap:butt;stroke-linejoin:round"
     inkscape:connector-curvature="0"
     id="path4220"
     d="m 74.3176,108.22047 93.22833,0 0,79.40157 -93.22833,0 z" />
  <path
     style="fill:#000000;fill-rule:nonzero"
     inkscape:connector-curvature="0"
     id="path4222"
     d="m 129.38293,162.32125 -3.125,-8.84375 -10.64063,0 -3.17187,8.84375 -3.67188,0 10.48438,-28.67188 3.32812,0 10.5,28.67188 -3.70312,0 z m -4.28125,-12.07813 -2.89063,-8.28125 q -0.10937,-0.34375 -0.28125,-0.84375 -0.17187,-0.51562 -0.34375,-1.09375 -0.17187,-0.59375 -0.35937,-1.21875 -0.17188,-0.64062 -0.32813,-1.25 -0.125,0.60938 -0.3125,1.25 -0.17187,0.64063 -0.34375,1.23438 -0.17187,0.59375 -0.34375,1.09375 -0.17187,0.5 -0.28125,0.82812 l -2.82812,8.28125 8.3125,0 z" />
  <path
     style="fill:#999999;fill-rule:nonzero"
     inkscape:connector-curvature="0"
     id="path4224"
     d="m 74.3176,197.38583 93.22833,0 0,79.40157 -93.22833,0 z" />
  <path
     style="fill-rule:nonzero;stroke:#666666;stroke-width:2;stroke-linecap:butt;stroke-linejoin:round"
     inkscape:connector-curvature="0"
     id="path4226"
     d="m 74.3176,197.38583 93.22833,0 0,79.40157 -93.22833,0 z" />
  <path
     style="fill:#d9d9d9;fill-rule:nonzero"
     inkscape:connector-curvature="0"
     id="path4228"
     d="m 112.40051,222.92411 7.79687,0 q 2.5,0 4.39063,0.39062 1.90625,0.375 3.1875,1.23438 1.28125,0.84375 1.92187,2.21875 0.65625,1.375 0.65625,3.39062 0,1.20313 -0.39062,2.26563 -0.375,1.04687 -1.10938,1.85937 -0.71875,0.79688 -1.78125,1.34375 -1.0625,0.53125 -2.40625,0.70313 l 0,0.1875 q 1.34375,0.23437 2.51563,0.6875 1.1875,0.4375 2.0625,1.20312 0.89062,0.76563 1.39062,1.9375 0.51563,1.17188 0.51563,2.85938 0,1.95313 -0.64063,3.48438 -0.625,1.53125 -1.82812,2.59375 -1.20313,1.0625 -2.92188,1.64062 -1.71875,0.5625 -3.89062,0.5625 l -9.46875,0 0,-28.5625 z m 3.625,12.10937 4.76562,0 q 1.64063,0 2.75,-0.28125 1.125,-0.29687 1.79688,-0.875 0.6875,-0.57812 0.98437,-1.4375 0.3125,-0.875 0.3125,-2.03125 0,-2.34375 -1.5,-3.35937 -1.5,-1.01563 -4.75,-1.01563 l -4.35937,0 0,9 z m 0,3.04688 0,10.3125 5.20312,0 q 1.71875,0 2.875,-0.39062 1.17188,-0.39063 1.875,-1.09375 0.71875,-0.70313 1.03125,-1.6875 0.3125,-0.98438 0.3125,-2.17188 0,-1.09375 -0.32812,-2.01562 -0.3125,-0.92188 -1.04688,-1.5625 -0.73437,-0.65625 -1.95312,-1.01563 -1.20313,-0.375 -3,-0.375 l -4.96875,0 z" />
  <path
     style="fill:#ffff00;fill-rule:nonzero"
     inkscape:connector-curvature="0"
     id="path4230"
     d="m 78.93077,343.29298 8.69556,0 0,-8.69556 8.1857,0 0,8.69556 8.69558,0 0,8.1857 -8.69558,0 0,8.69556 -8.1857,0 0,-8.69556 -8.69556,0 z" />
  <path
     style="fill-rule:nonzero;stroke:#000000;stroke-width:2;stroke-linecap:butt;stroke-linejoin:round"
     inkscape:connector-curvature="0"
     id="path4232"
     d="m 78.93077,343.29298 8.69556,0 0,-8.69556 8.1857,0 0,8.69556 8.69558,0 0,8.1857 -8.69558,0 0,8.69556 -8.1857,0 0,-8.69556 -8.69556,0 z" />
  <path
     style="fill:#000000;fill-opacity:0;fill-rule:nonzero"
     inkscape:connector-curvature="0"
     id="path4234"
     d="m 101.12073,321.92127 151.18109,0 0,54.39368 -151.18109,0 z" />
  <path
     style="fill:#000000;fill-rule:nonzero"
     inkscape:connector-curvature="0"
     id="path4236"
     d="m 129.57385,337.96311 0,14.8125 q 0,1.78125 -0.51563,3.3125 -0.51562,1.53125 -1.5625,2.65625 -1.03125,1.125 -2.60937,1.76563 -1.5625,0.64062 -3.6875,0.64062 -2,0 -3.53125,-0.59375 -1.53125,-0.60937 -2.57813,-1.71875 -1.03125,-1.10937 -1.5625,-2.65625 -0.53125,-1.5625 -0.53125,-3.46875 l 0,-14.71875 2.92188,0 0,14.875 q 0,2.73438 1.34375,4.23438 1.35937,1.5 4.09375,1.5 1.39062,0 2.39062,-0.42188 1,-0.42187 1.64063,-1.1875 0.64062,-0.76562 0.95312,-1.82812 0.3125,-1.0625 0.32813,-2.32813 l 0,-14.875 2.90625,0 z m 13.35937,23.1875 q -0.92187,0 -1.67187,-0.20312 -0.75,-0.20313 -1.35938,-0.53125 -0.59375,-0.34375 -1.0625,-0.79688 -0.45312,-0.45312 -0.8125,-0.95312 l -0.1875,0 q 0.0469,0.53125 0.0937,1.01562 0.0312,0.40625 0.0625,0.84375 0.0312,0.42188 0.0312,0.67188 l 0,7.32812 -2.84375,0 0,-24.84375 2.3125,0 0.40625,2.3125 0.125,0 q 0.35938,-0.54687 0.8125,-1.01562 0.45313,-0.48438 1.04688,-0.82813 0.60937,-0.35937 1.35937,-0.5625 0.75,-0.21875 1.6875,-0.21875 1.46875,0 2.67188,0.5625 1.20312,0.5625 2.04687,1.6875 0.85938,1.10938 1.32813,2.76563 0.46875,1.65625 0.46875,3.84375 0,2.20312 -0.46875,3.875 -0.46875,1.65625 -1.32813,2.78125 -0.84375,1.125 -2.04687,1.70312 -1.20313,0.5625 -2.67188,0.5625 z m -0.54687,-15.42187 q -1.1875,0 -2.01563,0.35937 -0.8125,0.35938 -1.32812,1.09375 -0.5,0.73438 -0.75,1.82813 -0.23438,1.09375 -0.26563,2.57812 l 0,0.64063 q 0,1.57812 0.20313,2.8125 0.21875,1.21875 0.71875,2.0625 0.51562,0.82812 1.35937,1.26562 0.84375,0.42188 2.10938,0.42188 2.10937,0 3.09375,-1.70313 1,-1.70312 1,-4.89062 0,-3.25 -1,-4.85938 -0.98438,-1.60937 -3.125,-1.60937 z m 22.14062,12.8125 -0.125,0 q -0.34375,0.53125 -0.8125,1.01562 -0.45312,0.46875 -1.0625,0.82813 -0.59375,0.35937 -1.34375,0.5625 -0.75,0.20312 -1.6875,0.20312 -1.45312,0 -2.65625,-0.5625 -1.20312,-0.5625 -2.0625,-1.67187 -0.85937,-1.125 -1.32812,-2.78125 -0.46875,-1.65625 -0.46875,-3.84375 0,-2.20313 0.46875,-3.85938 0.46875,-1.67187 1.32812,-2.79687 0.85938,-1.125 2.0625,-1.6875 1.20313,-0.57813 2.65625,-0.57813 0.92188,0 1.67188,0.20313 0.75,0.20312 1.34375,0.54687 0.60937,0.34375 1.07812,0.79688 0.46875,0.45312 0.8125,0.95312 l 0.1875,0 q -0.0469,-0.53125 -0.0937,-1.01562 -0.0312,-0.40625 -0.0625,-0.82813 -0.0312,-0.4375 -0.0312,-0.6875 l 0,-6.8125 2.84375,0 0,24.3125 -2.29687,0 -0.42188,-2.29687 z m -4.48437,0.25 q 1.1875,0 2,-0.35938 0.82812,-0.35937 1.32812,-1.09375 0.51563,-0.73437 0.75,-1.82812 0.25,-1.10938 0.28125,-2.57813 l 0,-0.64062 q 0,-1.57813 -0.21875,-2.79688 -0.20312,-1.23437 -0.71875,-2.0625 -0.5,-0.84375 -1.34375,-1.26562 -0.84375,-0.4375 -2.10937,-0.4375 -2.10938,0 -3.10938,1.70312 -0.98437,1.70313 -0.98437,4.89063 0,3.26562 0.98437,4.875 1,1.59375 3.14063,1.59375 z m 22.3125,2.04687 -0.57813,-2.375 -0.125,0 q -0.51562,0.70313 -1.03125,1.21875 -0.51562,0.5 -1.125,0.82813 -0.60937,0.32812 -1.35937,0.48437 -0.75,0.15625 -1.73438,0.15625 -1.07812,0 -1.98437,-0.3125 -0.90625,-0.29687 -1.57813,-0.92187 -0.65625,-0.64063 -1.03125,-1.59375 -0.375,-0.96875 -0.375,-2.28125 0,-2.5625 1.79688,-3.9375 1.8125,-1.375 5.5,-1.5 l 2.875,-0.10938 0,-1.07812 q 0,-1.04688 -0.23438,-1.75 -0.21875,-0.70313 -0.65625,-1.125 -0.42187,-0.4375 -1.0625,-0.625 -0.625,-0.1875 -1.4375,-0.1875 -1.29687,0 -2.42187,0.375 -1.10938,0.375 -2.14063,0.90625 l -1,-2.14063 q 1.15625,-0.625 2.57813,-1.0625 1.42187,-0.4375 2.98437,-0.4375 1.59375,0 2.75,0.32813 1.17188,0.3125 1.92188,1.01562 0.76562,0.6875 1.14062,1.76563 0.375,1.07812 0.375,2.60937 l 0,11.75 -2.04687,0 z m -5.21875,-1.98437 q 0.95312,0 1.76562,-0.29688 0.8125,-0.29687 1.40625,-0.89062 0.59375,-0.60938 0.92188,-1.51563 0.34375,-0.92187 0.34375,-2.15625 l 0,-1.54687 -2.23438,0.10937 q -1.40625,0.0625 -2.35937,0.3125 -0.95313,0.25 -1.53125,0.70313 -0.5625,0.4375 -0.8125,1.07812 -0.25,0.625 -0.25,1.42188 0,1.4375 0.75,2.10937 0.76562,0.67188 2,0.67188 z m 17.71875,-0.0312 q 0.28125,0 0.625,-0.0312 0.35937,-0.0312 0.6875,-0.0781 0.32812,-0.0469 0.59375,-0.10937 0.28125,-0.0625 0.42187,-0.10938 l 0,2.15625 q -0.20312,0.0937 -0.51562,0.1875 -0.3125,0.0937 -0.6875,0.15625 -0.375,0.0781 -0.78125,0.10938 -0.40625,0.0469 -0.79688,0.0469 -0.96875,0 -1.79687,-0.25 -0.82813,-0.25 -1.4375,-0.85937 -0.59375,-0.60938 -0.9375,-1.64063 -0.34375,-1.04687 -0.34375,-2.625 l 0,-9.95312 -2.42188,0 0,-1.26563 2.42188,-1.21875 1.21875,-3.59375 1.64062,0 0,3.9375 4.3125,0 0,2.14063 -4.3125,0 0,9.95312 q 0,1.51563 0.48438,2.28125 0.5,0.76563 1.625,0.76563 z m 12.4375,2.32812 q -1.71875,0 -3.14063,-0.57812 -1.42187,-0.57813 -2.45312,-1.6875 -1.01563,-1.10938 -1.57813,-2.75 -0.5625,-1.64063 -0.5625,-3.75 0,-2.125 0.51563,-3.79688 0.51562,-1.67187 1.45312,-2.82812 0.9375,-1.17188 2.23438,-1.78125 1.3125,-0.60938 2.89062,-0.60938 1.54688,0 2.78125,0.5625 1.23438,0.54688 2.09375,1.5625 0.85938,1 1.3125,2.42188 0.46875,1.40625 0.46875,3.125 l 0,1.76562 -10.8125,0 q 0.0781,3.01563 1.26563,4.4375 1.20312,1.42188 3.5625,1.42188 0.79687,0 1.46875,-0.0781 0.6875,-0.0781 1.3125,-0.21875 0.64062,-0.15625 1.23437,-0.375 0.59375,-0.23437 1.20313,-0.51562 l 0,2.53125 q -0.625,0.29687 -1.23438,0.51562 -0.59375,0.21875 -1.23437,0.35938 -0.625,0.14062 -1.3125,0.20312 -0.67188,0.0625 -1.46875,0.0625 z m -0.70313,-15.42187 q -1.78125,0 -2.82812,1.21875 -1.03125,1.21875 -1.20313,3.54687 l 7.6875,0 q 0,-1.0625 -0.21875,-1.9375 -0.20312,-0.89062 -0.65625,-1.51562 -0.4375,-0.625 -1.125,-0.96875 -0.6875,-0.34375 -1.65625,-0.34375 z" />
  <path
     style="fill:#000000;fill-opacity:0;fill-rule:nonzero"
     inkscape:connector-curvature="0"
     id="path4238"
     d="m 91.71917,329.63584 0,-50.14172" />
  <path
     style="fill-rule:evenodd;stroke:#000000;stroke-width:3;stroke-linecap:butt;stroke-linejoin:round"
     inkscape:connector-curvature="0"
     id="path4240"
     d="m 91.71917,329.63584 0,-39.86047" />
  <path
     style="fill:#000000;fill-rule:evenodd;stroke:#000000;stroke-width:3;stroke-linecap:butt"
     inkscape:connector-curvature="0"
     id="path4242"
     d="m 91.71917,289.77537 3.37375,3.37375 -3.37375,-9.26929 -3.37375,9.26929 z" />
</svg>
