<?xml version="1.0" encoding="UTF-8" standalone="no"?>
<svg
   xmlns:dc="http://purl.org/dc/elements/1.1/"
   xmlns:cc="http://creativecommons.org/ns#"
   xmlns:rdf="http://www.w3.org/1999/02/22-rdf-syntax-ns#"
   xmlns:svg="http://www.w3.org/2000/svg"
   xmlns="http://www.w3.org/2000/svg"
   xmlns:sodipodi="http://sodipodi.sourceforge.net/DTD/sodipodi-0.dtd"
   xmlns:inkscape="http://www.inkscape.org/namespaces/inkscape"
   version="1.1"
   viewBox="0 0 435.77954 385.00787"
   stroke-miterlimit="10"
   id="svg4136"
   inkscape:version="0.91 r13725"
   sodipodi:docname="Untitled drawing(1).svg"
   width="435.77954"
   height="385.00787"
   style="fill:none;stroke:none;stroke-linecap:square;stroke-miterlimit:10">
  <metadata
     id="metadata4169">
    <rdf:RDF>
      <cc:Work
         rdf:about="">
        <dc:format>image/svg+xml</dc:format>
        <dc:type
           rdf:resource="http://purl.org/dc/dcmitype/StillImage" />
        <dc:title></dc:title>
      </cc:Work>
    </rdf:RDF>
  </metadata>
  <defs
     id="defs4167" />
  <sodipodi:namedview
     pagecolor="#ffffff"
     bordercolor="#666666"
     borderopacity="1"
     objecttolerance="10"
     gridtolerance="10"
     guidetolerance="10"
     inkscape:pageopacity="0"
     inkscape:pageshadow="2"
     inkscape:window-width="1212"
     inkscape:window-height="702"
     id="namedview4165"
     showgrid="false"
     inkscape:zoom="0.83333333"
     inkscape:cx="169.88977"
     inkscape:cy="227.88976"
     inkscape:window-x="51"
     inkscape:window-y="14"
     inkscape:window-maximized="0"
     inkscape:current-layer="svg4136"
     fit-margin-top="0"
     fit-margin-left="0"
     fit-margin-right="0"
     fit-margin-bottom="0" />
  <clipPath
     id="p.0">
    <path
       d="M 0,0 960,0 960,720 0,720 0,0 Z"
       id="path4139"
       inkscape:connector-curvature="0"
       style="clip-rule:nonzero" />
  </clipPath>
  <path
     style="fill:#ffffff;fill-rule:nonzero"
     inkscape:connector-curvature="0"
     id="path4145"
     d="m 0,0 435.77954,0 0,385.00787 -435.77954,0 z" />
  <path
     style="fill:#00ffff;fill-rule:nonzero"
     inkscape:connector-curvature="0"
     id="path4147"
     d="m 175.46719,108.22047 185.98428,0 0,168.56693 -185.98428,0 z" />
  <path
     style="fill-rule:nonzero;stroke:#000000;stroke-width:2;stroke-linecap:butt;stroke-linejoin:round"
     inkscape:connector-curvature="0"
     id="path4149"
     d="m 175.46719,108.22047 185.98428,0 0,168.56693 -185.98428,0 z" />
  <path
     style="fill:#000000;fill-rule:nonzero"
     inkscape:connector-curvature="0"
     id="path4151"
     d="m 251.69177,192.35706 q 0,3.60937 -0.9375,6.34375 -0.93753,2.71875 -2.71878,4.54687 -1.76563,1.8125 -4.35938,2.73438 -2.59375,0.92187 -5.875,0.92187 l -7.14062,0 0,-28.5625 7.95312,0 q 2.98438,0 5.40625,0.90625 2.42188,0.89063 4.10938,2.67188 1.70312,1.76562 2.62503,4.39062 0.9375,2.60938 0.9375,6.04688 z m -3.84378,0.10937 q 0,-2.84375 -0.65625,-4.92187 -0.64063,-2.09375 -1.875,-3.4375 -1.21875,-1.34375 -3.01563,-2 -1.79687,-0.65625 -4.07812,-0.65625 l -3.9375,0 0,22.32812 3.17187,0 q 5.15625,0 7.76563,-2.84375 2.625,-2.85937 2.625,-8.46875 z m 21.76956,14.4375 -0.71875,-2.96875 -0.15625,0 q -0.64062,0.875 -1.29687,1.51563 -0.64063,0.625 -1.40625,1.04687 -0.75,0.40625 -1.6875,0.59375 -0.9375,0.20313 -2.17188,0.20313 -1.34375,0 -2.48437,-0.39063 -1.125,-0.375 -1.95313,-1.15625 -0.82812,-0.79687 -1.29687,-2 -0.46875,-1.20312 -0.46875,-2.84375 0,-3.20312 2.25,-4.92187 2.25,-1.71875 6.85937,-1.875 l 3.59375,-0.14063 0,-1.34375 q 0,-1.3125 -0.28125,-2.1875 -0.28125,-0.875 -0.82812,-1.40625 -0.53125,-0.54687 -1.32813,-0.78125 -0.78125,-0.23437 -1.79687,-0.23437 -1.625,0 -3.01563,0.46875 -1.39062,0.46875 -2.6875,1.14062 l -1.25,-2.6875 q 1.45313,-0.78125 3.21875,-1.32812 1.78125,-0.54688 3.73438,-0.54688 2,0 3.45312,0.40625 1.45313,0.40625 2.39063,1.28125 0.95312,0.85938 1.42187,2.20313 0.46875,1.34375 0.46875,3.26562 l 0,14.6875 -2.5625,0 z m -6.51562,-2.48437 q 1.1875,0 2.20312,-0.35938 1.01563,-0.375 1.75,-1.125 0.75,-0.76562 1.17188,-1.90625 0.42187,-1.14062 0.42187,-2.6875 l 0,-1.92187 -2.79687,0.125 q -1.75,0.0781 -2.95313,0.39062 -1.1875,0.3125 -1.90625,0.875 -0.70312,0.5625 -1.01562,1.35938 -0.3125,0.78125 -0.3125,1.78125 0,1.79687 0.9375,2.64062 0.95312,0.82813 2.5,0.82813 z m 22.15234,-0.0312 q 0.34375,0 0.78125,-0.0312 0.4375,-0.0469 0.84375,-0.10938 0.42188,-0.0625 0.76563,-0.14062 0.34375,-0.0781 0.51562,-0.14063 l 0,2.70313 q -0.25,0.10937 -0.64062,0.23437 -0.39063,0.125 -0.85938,0.20313 -0.46875,0.0937 -0.98437,0.14062 -0.5,0.0469 -1,0.0469 -1.20313,0 -2.25,-0.3125 -1.03125,-0.3125 -1.78125,-1.07813 -0.75,-0.76562 -1.1875,-2.0625 -0.42188,-1.29687 -0.42188,-3.26562 l 0,-12.4375 -3.03125,0 0,-1.59375 3.03125,-1.51563 1.53125,-4.5 2.04688,0 0,4.92188 5.39062,0 0,2.6875 -5.39062,0 0,12.4375 q 0,1.89062 0.60937,2.85937 0.625,0.95313 2.03125,0.95313 z m 19.14844,2.51562 -0.71875,-2.96875 -0.15625,0 q -0.64063,0.875 -1.29688,1.51563 -0.64062,0.625 -1.40625,1.04687 -0.75,0.40625 -1.6875,0.59375 -0.9375,0.20313 -2.17187,0.20313 -1.34375,0 -2.48438,-0.39063 -1.125,-0.375 -1.95312,-1.15625 -0.82813,-0.79687 -1.29688,-2 -0.46875,-1.20312 -0.46875,-2.84375 0,-3.20312 2.25,-4.92187 2.25,-1.71875 6.85938,-1.875 l 3.59375,-0.14063 0,-1.34375 q 0,-1.3125 -0.28125,-2.1875 -0.28125,-0.875 -0.82813,-1.40625 -0.53125,-0.54687 -1.32812,-0.78125 -0.78125,-0.23437 -1.79688,-0.23437 -1.625,0 -3.01562,0.46875 -1.39063,0.46875 -2.6875,1.14062 l -1.25,-2.6875 q 1.45312,-0.78125 3.21875,-1.32812 1.78125,-0.54688 3.73437,-0.54688 2,0 3.45313,0.40625 1.45312,0.40625 2.39062,1.28125 0.95313,0.85938 1.42188,2.20313 0.46875,1.34375 0.46875,3.26562 l 0,14.6875 -2.5625,0 z m -6.51563,-2.48437 q 1.1875,0 2.20313,-0.35938 1.01562,-0.375 1.75,-1.125 0.75,-0.76562 1.17187,-1.90625 0.42188,-1.14062 0.42188,-2.6875 l 0,-1.92187 -2.79688,0.125 q -1.75,0.0781 -2.95312,0.39062 -1.1875,0.3125 -1.90625,0.875 -0.70313,0.5625 -1.01563,1.35938 -0.3125,0.78125 -0.3125,1.78125 0,1.79687 0.9375,2.64062 0.95313,0.82813 2.5,0.82813 z" />
  <path
     style="fill:#00ffff;fill-rule:nonzero"
     inkscape:connector-curvature="0"
     id="path4153"
     d="m 74.3176,108.22047 93.22833,0 0,79.40157 -93.22833,0 z" />
  <path
     style="fill-rule:nonzero;stroke:#000000;stroke-width:2;stroke-linecap:butt;stroke-linejoin:round"
     inkscape:connector-curvature="0"
     id="path4155"
     d="m 74.3176,108.22047 93.22833,0 0,79.40157 -93.22833,0 z" />
  <path
     style="fill:#000000;fill-rule:nonzero"
     inkscape:connector-curvature="0"
     id="path4157"
     d="m 129.38293,162.32125 -3.125,-8.84375 -10.64063,0 -3.17187,8.84375 -3.67188,0 10.48438,-28.67188 3.32812,0 10.5,28.67188 -3.70312,0 z m -4.28125,-12.07813 -2.89063,-8.28125 q -0.10937,-0.34375 -0.28125,-0.84375 -0.17187,-0.51562 -0.34375,-1.09375 -0.17187,-0.59375 -0.35937,-1.21875 -0.17188,-0.64062 -0.32813,-1.25 -0.125,0.60938 -0.3125,1.25 -0.17187,0.64063 -0.34375,1.23438 -0.17187,0.59375 -0.34375,1.09375 -0.17187,0.5 -0.28125,0.82812 l -2.82812,8.28125 8.3125,0 z" />
  <path
     style="fill:#999999;fill-rule:nonzero"
     inkscape:connector-curvature="0"
     id="path4159"
     d="m 74.3176,197.38583 93.22833,0 0,79.40157 -93.22833,0 z" />
  <path
     style="fill-rule:nonzero;stroke:#666666;stroke-width:2;stroke-linecap:butt;stroke-linejoin:round"
     inkscape:connector-curvature="0"
     id="path4161"
     d="m 74.3176,197.38583 93.22833,0 0,79.40157 -93.22833,0 z" />
  <path
     style="fill:#d9d9d9;fill-rule:nonzero"
     inkscape:connector-curvature="0"
     id="path4163"
     d="m 112.40051,222.92411 7.79687,0 q 2.5,0 4.39063,0.39062 1.90625,0.375 3.1875,1.23438 1.28125,0.84375 1.92187,2.21875 0.65625,1.375 0.65625,3.39062 0,1.20313 -0.39062,2.26563 -0.375,1.04687 -1.10938,1.85937 -0.71875,0.79688 -1.78125,1.34375 -1.0625,0.53125 -2.40625,0.70313 l 0,0.1875 q 1.34375,0.23437 2.51563,0.6875 1.1875,0.4375 2.0625,1.20312 0.89062,0.76563 1.39062,1.9375 0.51563,1.17188 0.51563,2.85938 0,1.95313 -0.64063,3.48438 -0.625,1.53125 -1.82812,2.59375 -1.20313,1.0625 -2.92188,1.64062 -1.71875,0.5625 -3.89062,0.5625 l -9.46875,0 0,-28.5625 z m 3.625,12.10937 4.76562,0 q 1.64063,0 2.75,-0.28125 1.125,-0.29687 1.79688,-0.875 0.6875,-0.57812 0.98437,-1.4375 0.3125,-0.875 0.3125,-2.03125 0,-2.34375 -1.5,-3.35937 -1.5,-1.01563 -4.75,-1.01563 l -4.35937,0 0,9 z m 0,3.04688 0,10.3125 5.20312,0 q 1.71875,0 2.875,-0.39062 1.17188,-0.39063 1.875,-1.09375 0.71875,-0.70313 1.03125,-1.6875 0.3125,-0.98438 0.3125,-2.17188 0,-1.09375 -0.32812,-2.01562 -0.3125,-0.92188 -1.04688,-1.5625 -0.73437,-0.65625 -1.95312,-1.01563 -1.20313,-0.375 -3,-0.375 l -4.96875,0 z" />
</svg>
