<?xml version="1.0" encoding="UTF-8" standalone="no"?>
<!-- Created with Inkscape (http://www.inkscape.org/) -->

<svg
   xmlns:dc="http://purl.org/dc/elements/1.1/"
   xmlns:cc="http://creativecommons.org/ns#"
   xmlns:rdf="http://www.w3.org/1999/02/22-rdf-syntax-ns#"
   xmlns:svg="http://www.w3.org/2000/svg"
   xmlns="http://www.w3.org/2000/svg"
   xmlns:sodipodi="http://sodipodi.sourceforge.net/DTD/sodipodi-0.dtd"
   xmlns:inkscape="http://www.inkscape.org/namespaces/inkscape"
   id="svg4244"
   version="1.1"
   inkscape:version="0.91 r13725"
   xml:space="preserve"
   width="812.5"
   height="725"
   viewBox="0 0 812.5 725"
   sodipodi:docname="vector_v-dark-trans.svg"><metadata
     id="metadata4250"><rdf:RDF><cc:Work
         rdf:about=""><dc:format>image/svg+xml</dc:format><dc:type
           rdf:resource="http://purl.org/dc/dcmitype/StillImage" /><dc:title></dc:title></cc:Work></rdf:RDF></metadata><defs
     id="defs4248"><clipPath
       clipPathUnits="userSpaceOnUse"
       id="clipPath4260"><path
         d="M 0,0 650,0 650,580 0,580 0,0 Z"
         id="path4262"
         inkscape:connector-curvature="0" /></clipPath></defs><sodipodi:namedview
     pagecolor="#ffffff"
     bordercolor="#666666"
     borderopacity="1"
     objecttolerance="10"
     gridtolerance="10"
     guidetolerance="10"
     inkscape:pageopacity="0"
     inkscape:pageshadow="2"
     inkscape:window-width="1367"
     inkscape:window-height="752"
     id="namedview4246"
     showgrid="false"
     inkscape:zoom="0.87705101"
     inkscape:cx="236.77192"
     inkscape:cy="362.5"
     inkscape:window-x="0"
     inkscape:window-y="0"
     inkscape:window-maximized="0"
     inkscape:current-layer="g4252" /><g
     id="g4252"
     inkscape:groupmode="layer"
     inkscape:label="vector_v-dark-trans"
     transform="matrix(1.25,0,0,-1.25,0,725)"><g
       id="g4254" /><g
       id="g4256"
       transform="translate(-25.978933,5.4653086)"><g
         id="g4258"
         clip-path="url(#clipPath4260)"><path
           d="m 160.105,167.14 0,30.552 c 0,4.012 2.51,7.239 6.665,7.239 l 1.152,0 c 4.154,0 6.652,-3.229 6.652,-7.239 l 0,-64.32 c 0,-15.685 -7.75,-28.164 -21.252,-36.115 -6.261,-3.684 -13.179,-5.574 -20.437,-5.574 l -2.869,0 c -15.688,0 -28.153,7.755 -36.116,21.25 -3.695,6.265 -5.572,13.173 -5.572,20.439 l 0,2.867 c 0,15.69 7.754,28.162 21.246,36.127 6.266,3.699 13.174,5.574 20.442,5.574 l 2.869,0 c 10.617,0 19.625,-4.115 27.22,-10.8 z m -57.31,-32.332 c 0,-11.33 5.492,-19.848 15.42,-25.28 4.014,-2.197 8.373,-3.377 12.953,-3.377 11.121,0 19.369,5.246 25.059,14.67 2.646,4.385 3.878,9.18 3.878,14.28 0,9.822 -4.65,17.486 -12.564,23.179 -4.799,3.451 -10.201,5.182 -16.092,5.182 -12.121,0 -20.844,-6.123 -26.08,-17.002 -1.767,-3.678 -2.574,-7.584 -2.574,-11.652 z m 121.973,43.132 2.005,0 c 16.764,0 29.512,-8.132 37.592,-22.765 3.231,-5.854 4.959,-12.242 4.959,-18.936 l 0,-2.867 c 0,-15.684 -7.734,-28.182 -21.258,-36.117 -6.261,-3.672 -13.177,-5.572 -20.433,-5.572 l -2.865,0 c -15.688,0 -28.155,7.755 -36.116,21.25 -3.695,6.265 -5.576,13.173 -5.576,20.439 l 0,2.867 c 0,15.692 7.783,28.123 21.242,36.123 6.258,3.719 13.178,5.578 20.45,5.578 z m -27.225,-43.132 c 0,-10.998 5.398,-19.088 14.687,-24.776 4.362,-2.672 9.165,-3.881 14.262,-3.881 10.867,0 18.899,5.51 24.49,14.682 2.666,4.373 3.872,9.176 3.872,14.268 0,10.226 -4.926,18.039 -13.346,23.701 -4.615,3.105 -9.752,4.66 -15.309,4.66 -12.121,0 -20.844,-6.123 -26.078,-17.002 -1.771,-3.678 -2.578,-7.584 -2.578,-11.652 z m 131.93,27.498 c -2.184,1.023 -6.274,1.363 -8.635,1.453 -12.088,0.455 -20.834,-6.352 -25.965,-17.016 -1.771,-3.678 -2.58,-7.572 -2.58,-11.642 0,-12.393 6.506,-21.069 17.568,-26.358 4.041,-1.931 9.258,-2.299 13.674,-2.299 3.885,0 9.373,2.381 12.82,4.018 l 0.598,0.283 2.674,0 0.295,-0.06 c 3.291,-0.684 5.775,-2.77 5.775,-6.311 l 0,-1.432 c 0,-8.808 -16.099,-10.826 -22.242,-11.254 -21.678,-1.501 -37.891,10.405 -44.072,31.083 -1.074,3.589 -1.557,7.156 -1.557,10.898 l 0,2.863 c 0,15.69 7.785,28.117 21.242,36.112 6.258,3.716 13.178,5.582 20.448,5.582 l 2.867,0 c 7.711,0 14.814,-2.19 21.181,-6.539 l 0.524,-0.362 0.33,-0.545 c 0.687,-1.14 1.279,-2.457 1.279,-3.814 l 0,-1.432 c 0,-3.693 -2.763,-5.68 -6.099,-6.322 l -0.276,-0.049 -0.855,0 c -2.16,0 -7.067,2.236 -8.994,3.143 z m 46.929,-9.797 c 5.619,5.627 11.26,11.244 16.963,16.779 1.59,1.543 7.608,8.078 9.977,8.078 l 2.592,0 0.295,-0.06 c 3.3,-0.686 5.773,-2.776 5.773,-6.323 l 0,-1.431 c 0,-2.42 -2.834,-5.231 -4.397,-6.887 -3.324,-3.523 -6.824,-6.932 -10.226,-10.383 L 379.9,134.538 c 7.526,-7.543 15.045,-15.094 22.51,-22.695 2.065,-2.102 4.131,-4.207 6.164,-6.34 0.719,-0.756 1.78,-1.697 2.383,-2.746 0.647,-0.981 1.045,-2.088 1.045,-3.27 l 0,-1.496 -0.084,-0.344 c -0.813,-3.3 -2.908,-5.964 -6.566,-5.964 l -1.151,0 c -2.394,0 -5.097,2.709 -6.738,4.255 -3.377,3.186 -6.641,6.536 -9.953,9.79 l -11.108,10.904 0,-17.428 c 0,-4.014 -2.513,-7.24 -6.664,-7.24 l -1.14,0 c -4.155,0 -6.664,3.226 -6.664,7.24 l 0,98.207 c 0,4.016 2.511,7.227 6.664,7.227 l 1.14,0 c 4.151,0 6.664,-3.211 6.664,-7.227 l 0,-44.902 z m 180.328,24.857 1.436,0 c 4.34,0 7.236,-2.924 7.236,-7.238 0,-5.99 -5.726,-7.524 -10.681,-7.524 -6.498,0 -12.701,-3.933 -17.18,-8.345 -5.586,-5.506 -8.031,-12.559 -8.031,-20.311 l 0,-35.027 c 0,-4.016 -2.506,-7.238 -6.666,-7.238 l -1.141,0 c -4.158,0 -6.664,3.222 -6.664,7.238 l 0,37.037 c 0,14.223 6.924,25.832 18.465,33.975 6.894,4.865 14.787,7.433 23.226,7.433 z M 453.895,107.952 c 5.265,-1.838 11.269,-1.576 16.671,-0.635 2.762,1.174 9.829,4.256 12.428,3.805 l 0.406,-0.068 0.373,-0.184 c 1.586,-0.769 3.102,-1.857 3.911,-3.471 1.894,-3.787 0.984,-7.591 -2.735,-9.74 l -1.238,-0.715 c -13.725,-7.922 -28.322,-6.824 -42.002,0.575 -6.541,3.535 -11.545,8.785 -15.236,15.183 l -0.864,1.496 c -8.81,15.258 -7.621,31.309 2.315,45.819 3.431,5.015 7.914,8.89 13.156,11.92 l 1.983,1.144 c 12.925,7.461 26.777,6.951 40.052,0.402 7.137,-3.521 12.92,-8.771 16.905,-15.673 l 0.716,-1.243 c 2.895,-5.015 -0.855,-9.386 -4.726,-12.373 -4.492,-3.466 -9.028,-7.636 -13.334,-11.353 -9.6,-8.287 -19.186,-16.594 -28.781,-24.889 z m -12.426,8.727 c 10.738,9.207 21.478,18.42 32.185,27.664 3.659,3.156 7.672,6.431 11.303,9.75 -2.914,3.67 -7.779,6.316 -11.914,7.894 -8.344,3.18 -16.574,2.112 -24.227,-2.306 -10.019,-5.784 -14.285,-14.996 -13.91,-26.459 0.147,-4.514 1.362,-8.864 3.758,-12.705 0.844,-1.354 1.787,-2.625 2.805,-3.838"
           style="fill:#eaeaea;fill-opacity:1;fill-rule:evenodd;stroke:none"
           id="path4264"
           inkscape:connector-curvature="0" /><path
           d="m 363.387,406.609 42.695,0 0,-43.645 21.588,0 c 9.969,0 20.223,1.776 29.664,4.975 4.639,1.573 9.846,3.762 14.422,6.515 -6.027,7.869 -9.104,17.805 -10.01,27.599 -1.23,13.321 1.457,30.66 10.473,41.086 l 4.488,5.191 5.348,-4.299 c 13.465,-10.818 24.789,-25.934 26.785,-43.166 16.213,4.769 35.248,3.641 49.539,-4.607 l 5.863,-3.383 -3.086,-6.023 C 549.07,363.264 523.803,355.957 499.1,357.25 462.135,265.183 381.658,221.595 284.08,221.595 c -50.412,0 -96.664,18.845 -123.002,63.571 l -0.432,0.73 -3.837,7.807 c -8.903,19.688 -11.86,41.256 -9.854,62.806 l 0.602,6.455 36.509,0 0,43.645 42.694,0 0,42.696 85.392,0 0,42.695 51.235,0 0,-85.391"
           style="fill:#354750;fill-opacity:1;fill-rule:evenodd;stroke:none"
           id="path4266"
           inkscape:connector-curvature="0" /><path
           d="m 501.713,390.463 c 2.863,22.248 -13.787,39.724 -24.113,48.021 -11.899,-13.757 -13.748,-49.812 4.92,-64.992 -10.418,-9.254 -32.372,-17.642 -54.85,-17.642 l -273.627,0 c -2.186,-23.465 1.934,-45.073 11.342,-63.569 l 3.113,-5.693 c 1.971,-3.345 4.124,-6.573 6.451,-9.681 10e-4,0 10e-4,0 10e-4,0 11.249,-0.722 21.621,-0.972 31.11,-0.761 0.001,0 0.003,0 0.004,0 18.648,0.412 33.863,2.613 45.395,6.608 1.717,0.597 3.588,-0.314 4.182,-2.028 0.593,-1.715 -0.315,-3.588 -2.03,-4.182 -1.533,-0.531 -3.132,-1.029 -4.783,-1.5 -0.002,-0.002 -0.004,-0.002 -0.006,-0.002 -9.08,-2.592 -18.816,-4.338 -31.379,-5.113 0.745,-0.012 -0.777,-0.112 -0.781,-0.112 -0.427,-0.027 -0.965,-0.088 -1.394,-0.111 -4.944,-0.277 -10.281,-0.336 -15.737,-0.336 -5.967,0 -11.844,0.113 -18.414,0.447 l -0.168,-0.111 c 22.799,-25.625 58.447,-40.994 103.131,-40.994 94.57,0 174.785,41.922 210.305,136.038 25.201,-2.586 49.42,3.84 60.437,25.346 -17.549,10.127 -40.115,6.898 -53.109,0.367"
           style="fill:#47addf;fill-opacity:1;fill-rule:nonzero;stroke:none"
           id="path4268"
           inkscape:connector-curvature="0" /><path
           d="m 501.713,390.463 c 2.863,22.248 -13.787,39.724 -24.113,48.021 -11.899,-13.757 -13.748,-49.812 4.92,-64.992 -10.418,-9.254 -32.372,-17.642 -54.85,-17.642 l -257.424,0 c -1.117,-35.936 12.219,-63.214 35.814,-79.704 0.001,0 0.003,0 0.004,0 18.648,0.412 33.863,2.613 45.395,6.608 1.717,0.597 3.588,-0.314 4.182,-2.028 0.593,-1.715 -0.315,-3.588 -2.03,-4.182 -1.533,-0.531 -3.132,-1.029 -4.783,-1.5 -0.002,-0.002 -0.004,-0.002 -0.006,-0.002 -9.08,-2.592 -19.653,-4.561 -32.216,-5.336 -0.003,0 -0.304,0.291 -0.308,0.289 32.184,-16.508 78.852,-16.449 132.356,4.104 59.994,23.046 115.819,66.956 154.772,117.178 -0.588,-0.265 -1.16,-0.537 -1.713,-0.814"
           style="fill:#56beee;fill-opacity:1;fill-rule:nonzero;stroke:none"
           id="path4270"
           inkscape:connector-curvature="0" /><path
           d="m 154.555,327.34 c 1.701,-12.569 5.377,-24.338 10.83,-35.059 l 3.113,-5.693 c 1.971,-3.345 4.124,-6.573 6.452,-9.681 11.251,-0.722 21.624,-0.972 31.114,-0.761 18.648,0.412 33.863,2.613 45.395,6.608 1.717,0.597 3.588,-0.314 4.182,-2.028 0.593,-1.715 -0.315,-3.588 -2.03,-4.182 -1.533,-0.531 -3.132,-1.029 -4.783,-1.5 -0.002,-0.002 -0.004,-0.002 -0.006,-0.002 -9.08,-2.592 -19.597,-4.449 -32.16,-5.225 -0.431,-0.027 -1.183,-0.031 -1.618,-0.056 -4.942,-0.278 -10.224,-0.446 -15.681,-0.446 -5.966,0 -12.067,0.114 -18.636,0.446 22.798,-25.625 58.669,-41.049 103.353,-41.049 80.961,0 151.399,30.73 192.281,98.628 l -321.806,0"
           style="fill:#388abd;fill-opacity:1;fill-rule:nonzero;stroke:none"
           id="path4272"
           inkscape:connector-curvature="0" /><path
           d="m 172.709,327.34 c 4.84,-22.069 16.471,-39.395 33.355,-51.194 18.648,0.412 33.863,2.613 45.395,6.608 1.717,0.597 3.588,-0.314 4.182,-2.028 0.593,-1.715 -0.315,-3.588 -2.03,-4.182 -1.533,-0.531 -3.132,-1.029 -4.783,-1.5 -0.002,-0.002 -0.004,-0.002 -0.006,-0.002 -9.08,-2.592 -19.82,-4.449 -32.383,-5.225 32.182,-16.507 78.715,-16.269 132.215,4.282 32.366,12.434 63.516,30.946 91.463,53.241 l -267.408,0"
           style="fill:#3f9ccb;fill-opacity:1;fill-rule:nonzero;stroke:none"
           id="path4274"
           inkscape:connector-curvature="0" /><path
           d="m 191.182,399.494 37.002,0 0,-37.004 -37.002,0 0,37.004 z m 3.082,-3.084 2.92,0 0,-30.838 -2.92,0 0,30.838 z m 5.49,0 3.037,0 0,-30.838 -3.037,0 0,30.838 z m 5.605,0 3.037,0 0,-30.838 -3.037,0 0,30.838 z m 5.608,0 3.037,0 0,-30.838 -3.037,0 0,30.838 z m 5.607,0 3.037,0 0,-30.838 -3.037,0 0,30.838 z m 5.606,0 2.922,0 0,-30.838 -2.922,0 0,30.838 z"
           style="fill:#46b0d7;fill-opacity:1;fill-rule:evenodd;stroke:none"
           id="path4276"
           inkscape:connector-curvature="0" /><path
           d="m 233.875,442.189 37.006,0 0,-37.002 -37.006,0 0,37.002 z m 3.086,-3.084 2.918,0 0,-30.835 -2.918,0 0,30.835 z m 5.49,0 3.035,0 0,-30.835 -3.035,0 0,30.835 z m 5.604,0 3.037,0 0,-30.835 -3.037,0 0,30.835 z m 5.607,0 3.037,0 0,-30.835 -3.037,0 0,30.835 z m 5.608,0 3.037,0 0,-30.835 -3.037,0 0,30.835 z m 5.605,0 2.924,0 0,-30.835 -2.924,0 0,30.835 z"
           style="fill:#46b0d7;fill-opacity:1;fill-rule:evenodd;stroke:none"
           id="path4278"
           inkscape:connector-curvature="0" /><path
           d="m 233.875,399.494 37.006,0 0,-37.004 -37.006,0 0,37.004 z m 3.086,-3.084 2.918,0 0,-30.838 -2.918,0 0,30.838 z m 5.49,0 3.035,0 0,-30.838 -3.035,0 0,30.838 z m 5.604,0 3.037,0 0,-30.838 -3.037,0 0,30.838 z m 5.607,0 3.037,0 0,-30.838 -3.037,0 0,30.838 z m 5.608,0 3.037,0 0,-30.838 -3.037,0 0,30.838 z m 5.605,0 2.924,0 0,-30.838 -2.924,0 0,30.838 z"
           style="fill:#58c8f1;fill-opacity:1;fill-rule:evenodd;stroke:none"
           id="path4280"
           inkscape:connector-curvature="0" /><path
           d="m 276.572,399.494 37.004,0 0,-37.004 -37.004,0 0,37.004 z m 3.084,-3.084 2.918,0 0,-30.838 -2.918,0 0,30.838 z m 5.489,0 3.037,0 0,-30.838 -3.037,0 0,30.838 z m 5.607,0 3.037,0 0,-30.838 -3.037,0 0,30.838 z m 5.607,0 3.037,0 0,-30.838 -3.037,0 0,30.838 z m 5.606,0 3.039,0 0,-30.838 -3.039,0 0,30.838 z m 5.607,0 2.92,0 0,-30.838 -2.92,0 0,30.838 z"
           style="fill:#46b0d7;fill-opacity:1;fill-rule:evenodd;stroke:none"
           id="path4282"
           inkscape:connector-curvature="0" /><path
           d="m 276.572,442.189 37.004,0 0,-37.002 -37.004,0 0,37.002 z m 3.084,-3.084 2.918,0 0,-30.835 -2.918,0 0,30.835 z m 5.489,0 3.037,0 0,-30.835 -3.037,0 0,30.835 z m 5.607,0 3.037,0 0,-30.835 -3.037,0 0,30.835 z m 5.607,0 3.037,0 0,-30.835 -3.037,0 0,30.835 z m 5.606,0 3.039,0 0,-30.835 -3.039,0 0,30.835 z m 5.607,0 2.92,0 0,-30.835 -2.92,0 0,30.835 z"
           style="fill:#58c8f1;fill-opacity:1;fill-rule:evenodd;stroke:none"
           id="path4284"
           inkscape:connector-curvature="0" /><path
           d="m 319.268,399.494 37.003,0 0,-37.004 -37.003,0 0,37.004 z m 3.084,-3.084 2.919,0 0,-30.838 -2.919,0 0,30.838 z m 5.49,0 3.037,0 0,-30.838 -3.037,0 0,30.838 z m 5.605,0 3.037,0 0,-30.838 -3.037,0 0,30.838 z m 5.608,0 3.037,0 0,-30.838 -3.037,0 0,30.838 z m 5.607,0 3.037,0 0,-30.838 -3.037,0 0,30.838 z m 5.606,0 2.921,0 0,-30.838 -2.921,0 0,30.838 z"
           style="fill:#58c8f1;fill-opacity:1;fill-rule:evenodd;stroke:none"
           id="path4286"
           inkscape:connector-curvature="0" /><path
           d="m 319.268,442.189 37.003,0 0,-37.002 -37.003,0 0,37.002 z m 3.084,-3.084 2.919,0 0,-30.835 -2.919,0 0,30.835 z m 5.49,0 3.037,0 0,-30.835 -3.037,0 0,30.835 z m 5.605,0 3.037,0 0,-30.835 -3.037,0 0,30.835 z m 5.608,0 3.037,0 0,-30.835 -3.037,0 0,30.835 z m 5.607,0 3.037,0 0,-30.835 -3.037,0 0,30.835 z m 5.606,0 2.921,0 0,-30.835 -2.921,0 0,30.835 z"
           style="fill:#46b0d7;fill-opacity:1;fill-rule:evenodd;stroke:none"
           id="path4288"
           inkscape:connector-curvature="0" /><path
           d="m 319.268,484.885 37.003,0 0,-37.004 -37.003,0 0,37.004 z m 3.084,-3.082 2.919,0 0,-30.838 -2.919,0 0,30.838 z m 5.49,0 3.037,0 0,-30.838 -3.037,0 0,30.838 z m 5.605,0 3.037,0 0,-30.838 -3.037,0 0,30.838 z m 5.608,0 3.037,0 0,-30.838 -3.037,0 0,30.838 z m 5.607,0 3.037,0 0,-30.838 -3.037,0 0,30.838 z m 5.606,0 2.921,0 0,-30.838 -2.921,0 0,30.838 z"
           style="fill:#58c8f1;fill-opacity:1;fill-rule:evenodd;stroke:none"
           id="path4290"
           inkscape:connector-curvature="0" /><path
           d="m 361.963,399.494 37.004,0 0,-37.004 -37.004,0 0,37.004 z m 3.082,-3.084 2.922,0 0,-30.838 -2.922,0 0,30.838 z m 5.49,0 3.037,0 0,-30.838 -3.037,0 0,30.838 z m 5.608,0 3.037,0 0,-30.838 -3.037,0 0,30.838 z m 5.605,0 3.037,0 0,-30.838 -3.037,0 0,30.838 z m 5.609,0 3.036,0 0,-30.838 -3.036,0 0,30.838 z m 5.606,0 2.92,0 0,-30.838 -2.92,0 0,30.838 z"
           style="fill:#46b0d7;fill-opacity:1;fill-rule:evenodd;stroke:none"
           id="path4292"
           inkscape:connector-curvature="0" /><path
           d="m 268.564,302.496 c 5.637,0 10.207,-4.572 10.207,-10.209 0,-5.637 -4.57,-10.207 -10.207,-10.207 -5.638,0 -10.209,4.57 -10.209,10.207 0,5.637 4.571,10.209 10.209,10.209"
           style="fill:#d7f2f2;fill-opacity:1;fill-rule:evenodd;stroke:none"
           id="path4294"
           inkscape:connector-curvature="0" /><path
           d="m 268.564,299.6 c 0.934,0 1.825,-0.176 2.647,-0.495 -0.891,-0.515 -1.494,-1.48 -1.494,-2.584 0,-1.648 1.336,-2.982 2.984,-2.982 1.129,0 2.11,0.627 2.617,1.553 0.358,-0.863 0.557,-1.811 0.557,-2.805 0,-4.037 -3.273,-7.31 -7.311,-7.31 -4.037,0 -7.312,3.273 -7.312,7.31 0,4.039 3.275,7.313 7.312,7.313"
           style="fill:#354750;fill-opacity:1;fill-rule:evenodd;stroke:none"
           id="path4296"
           inkscape:connector-curvature="0" /><path
           d="m 88,323.65 474.877,0 c -10.34,2.623 -32.715,6.166 -29.025,19.717 -18.801,-21.756 -64.143,-15.263 -75.586,-4.535 -12.743,-18.482 -86.926,-11.457 -92.1,2.941 -15.975,-18.748 -65.477,-18.748 -81.453,0 -5.176,-14.398 -79.358,-21.423 -92.102,-2.941 -11.443,-10.728 -56.781,-17.221 -75.584,4.535 C 120.717,329.816 98.342,326.273 88,323.65"
           style="fill:#354750;fill-opacity:1;fill-rule:evenodd;stroke:none"
           id="path4298"
           inkscape:connector-curvature="0" /><path
           d="m 295.701,228.933 c -25.281,11.996 -39.158,28.304 -46.879,46.109 -9.39,-2.682 -20.679,-4.395 -33.795,-5.131 -4.941,-0.277 -10.138,-0.418 -15.593,-0.418 -6.288,0 -12.914,0.186 -19.87,0.555 23.184,-23.17 51.706,-41.01 104.516,-41.336 3.899,0 7.77,0.076 11.621,0.221"
           style="fill:#c2e1e0;fill-opacity:1;fill-rule:nonzero;stroke:none"
           id="path4300"
           inkscape:connector-curvature="0" /><path
           d="m 258.213,258.614 c -3.498,4.748 -6.891,10.715 -9.385,16.43 -9.392,-2.682 -20.683,-4.397 -33.801,-5.133 9.01,-4.89 21.897,-9.422 43.186,-11.297"
           style="fill:#d7f2f2;fill-opacity:1;fill-rule:nonzero;stroke:none"
           id="path4302"
           inkscape:connector-curvature="0" /></g></g></g></svg>